<?xml version="1.0" encoding="utf-8"?>
<!-- Generator: Adobe Illustrator 15.0.0, SVG Export Plug-In . SVG Version: 6.00 Build 0)  -->
<!DOCTYPE svg PUBLIC "-//W3C//DTD SVG 1.1//EN" "http://www.w3.org/Graphics/SVG/1.1/DTD/svg11.dtd">
<svg version="1.1" id="Layer_1" xmlns="http://www.w3.org/2000/svg" xmlns:xlink="http://www.w3.org/1999/xlink" x="0px" y="0px"
	 width="467.72px" height="141.73px" viewBox="0 0 467.72 141.73" enable-background="new 0 0 467.72 141.73" xml:space="preserve">
<g>
	<path fill="#FFFFFF" d="M86.767,30.875c-2.345,0-4.368,0.838-6.027,2.498c-1.661,1.66-2.501,3.685-2.501,6.026
		c0,2.35,0.84,4.371,2.501,6.031c1.659,1.657,3.683,2.499,6.027,2.499c2.34,0,4.371-0.841,6.025-2.499
		c1.658-1.66,2.501-3.681,2.501-6.031c0-2.341-0.843-4.366-2.501-6.026C91.138,31.713,89.106,30.875,86.767,30.875z"/>
	<path fill="#FFFFFF" d="M249.556,30.875c-2.349,0-4.373,0.838-6.032,2.498c-1.654,1.66-2.497,3.685-2.497,6.026
		c0,2.35,0.843,4.371,2.497,6.031c1.659,1.657,3.684,2.499,6.032,2.499c2.341,0,4.365-0.841,6.027-2.499
		c1.657-1.66,2.5-3.681,2.5-6.031c0-2.341-0.843-4.366-2.5-6.026C253.921,31.713,251.896,30.875,249.556,30.875z"/>
	<path fill="#FFFFFF" d="M71.149,57.201c-1.695-2.153-3.794-3.882-6.236-5.167c-2.471-1.296-5.295-1.952-8.394-1.952
		c-2.767,0-5.378,0.442-7.777,1.296c-1.559,0.563-2.95,1.369-4.169,2.427V28.345H29.544v66.087h14.017v-3.6
		c0.048,0.039,0.094,0.085,0.136,0.125c0.885,0.822,1.926,1.572,3.096,2.231c1.158,0.654,2.447,1.2,3.822,1.621
		c1.404,0.425,2.901,0.636,4.475,0.636c3.178,0,6.109-0.555,8.717-1.65c2.618-1.094,4.898-2.667,6.773-4.658
		c1.871-1.997,3.328-4.388,4.336-7.109c0.996-2.703,1.508-5.709,1.508-8.92c0-2.986-0.465-5.873-1.369-8.593
		C74.143,61.776,72.827,59.316,71.149,57.201z M59.057,79.455c-1.548,1.666-3.698,2.477-6.578,2.477
		c-2.883,0-5.034-0.811-6.587-2.477c-1.566-1.698-2.331-3.884-2.331-6.69c0-2.8,0.765-4.987,2.331-6.684
		c1.553-1.671,3.704-2.48,6.587-2.48c2.88,0,5.03,0.81,6.578,2.48c1.571,1.698,2.334,3.884,2.334,6.684
		C61.391,75.571,60.628,77.757,59.057,79.455z"/>
	<rect x="79.247" y="51.09" fill="#FFFFFF" width="15.033" height="43.341"/>
	<path fill="#FFFFFF" d="M129.881,54.741c-0.067-0.057-0.127-0.113-0.194-0.175c-0.91-0.825-2.015-1.574-3.279-2.241
		c-1.248-0.65-2.68-1.189-4.25-1.613c-1.588-0.415-3.348-0.63-5.238-0.63c-3.104,0-5.922,0.656-8.393,1.952
		c-2.433,1.274-4.528,2.983-6.221,5.065c-1.693,2.067-3.004,4.493-3.914,7.198c-0.912,2.698-1.373,5.491-1.373,8.298
		c0,3.226,0.506,6.228,1.508,8.931c1.006,2.719,2.463,5.112,4.339,7.098c1.868,2,4.152,3.571,6.768,4.668
		c2.604,1.094,5.538,1.653,8.72,1.653c2.043,0,4.234-0.438,6.529-1.304c1.471-0.549,2.807-1.352,3.986-2.396v1.074
		c0,2.615-0.78,4.703-2.394,6.373c-1.589,1.627-4.181,2.453-7.698,2.453c-2.408,0-4.637-0.443-6.634-1.33
		c-2.059-0.909-4.048-2.149-5.917-3.705l-1.02-0.846l-8.346,12.463l0.871,0.689c3.097,2.46,6.544,4.141,10.245,4.992
		c3.616,0.83,7.338,1.25,11.048,1.25c8.273,0,14.561-2.147,18.684-6.387c4.109-4.229,6.188-10.447,6.188-18.487V51.09h-14.015
		V54.741z M129.211,75.889c-0.435,1.055-1.078,2.007-1.888,2.814c-0.818,0.82-1.793,1.492-2.894,1.991
		c-2.2,0.996-4.922,0.95-6.962,0.005c-1.074-0.504-2.035-1.172-2.861-1.996c-0.818-0.808-1.451-1.76-1.891-2.814
		c-0.438-1.059-0.664-2.188-0.664-3.375c0-1.187,0.226-2.318,0.664-3.372c0.447-1.054,1.08-2.009,1.891-2.818
		c0.821-0.823,1.787-1.492,2.861-1.988c1.045-0.494,2.223-0.735,3.5-0.735c1.222,0,2.387,0.245,3.462,0.735
		c1.104,0.499,2.079,1.165,2.894,1.988c0.81,0.809,1.448,1.764,1.888,2.818c0.448,1.054,0.67,2.186,0.67,3.372
		C129.881,73.701,129.659,74.83,129.211,75.889z"/>
	<path fill="#FFFFFF" d="M187.583,56.26c-2.158-1.986-4.734-3.53-7.641-4.585c-5.807-2.112-12.801-2.107-18.599,0
		c-2.912,1.06-5.486,2.599-7.646,4.585c-2.158,1.976-3.888,4.394-5.128,7.168c-1.245,2.787-1.876,5.929-1.876,9.336
		c0,3.417,0.631,6.557,1.876,9.339c1.24,2.775,2.97,5.196,5.128,7.176c2.159,1.978,4.729,3.526,7.646,4.577
		c2.894,1.062,6.028,1.589,9.3,1.589c3.271,0,6.396-0.527,9.299-1.589c2.911-1.051,5.482-2.6,7.641-4.577
		c2.166-1.988,3.895-4.4,5.129-7.176c1.248-2.782,1.875-5.922,1.875-9.339c0-3.408-0.627-6.55-1.875-9.336
		C191.478,60.653,189.749,58.245,187.583,56.26z M177.22,79.455c-1.545,1.666-3.697,2.477-6.576,2.477
		c-2.885,0-5.033-0.811-6.582-2.477c-1.572-1.698-2.334-3.884-2.334-6.69c0-2.8,0.762-4.987,2.334-6.684
		c1.549-1.671,3.701-2.48,6.582-2.48c2.879,0,5.031,0.81,6.576,2.48c1.572,1.697,2.339,3.884,2.339,6.684
		C179.559,75.571,178.792,77.757,177.22,79.455z"/>
	<path fill="#FFFFFF" d="M236.234,56.205c-1.204-1.921-2.911-3.444-5.065-4.521c-2.127-1.061-4.917-1.603-8.288-1.603
		c-1.624,0-3.161,0.215-4.563,0.644c-1.385,0.421-2.639,0.976-3.726,1.641c-1.005,0.61-1.896,1.311-2.646,2.087V51.09h-14.524
		v43.341h15.029V72.855c0-1.297,0.081-2.54,0.24-3.721c0.148-1.086,0.459-2.066,0.916-2.92c0.433-0.789,1.047-1.414,1.877-1.891
		c0.816-0.482,1.949-0.723,3.354-0.723c1.35,0,2.363,0.256,3.016,0.758c0.701,0.545,1.215,1.237,1.559,2.102
		c0.375,0.951,0.604,2.01,0.675,3.142c0.085,1.237,0.129,2.429,0.129,3.585v21.243h15.026V70.66c0-2.801-0.202-5.449-0.602-7.866
		C238.222,60.292,237.412,58.073,236.234,56.205z"/>
	<rect x="242.041" y="51.09" fill="#FFFFFF" width="15.026" height="43.341"/>
	<path fill="#FFFFFF" d="M291.717,53.804c-1.216-1.058-2.612-1.864-4.172-2.427c-2.392-0.854-5.006-1.296-7.772-1.296
		c-3.104,0-5.929,0.656-8.391,1.952c-2.445,1.282-4.545,3.014-6.241,5.167c-1.678,2.117-2.992,4.58-3.903,7.314
		c-0.912,2.716-1.37,5.606-1.37,8.593c0,3.218,0.514,6.217,1.506,8.92c1.008,2.722,2.469,5.107,4.344,7.109
		c1.873,1.996,4.15,3.564,6.768,4.658c2.604,1.096,5.543,1.65,8.722,1.65c1.508,0,2.992-0.211,4.423-0.633
		c1.41-0.424,2.709-0.97,3.872-1.624c1.168-0.659,2.206-1.409,3.091-2.231c0.047-0.04,0.095-0.086,0.143-0.125v3.6h14.018V28.345
		h-15.035V53.804z M290.399,79.455c-1.556,1.666-3.705,2.477-6.587,2.477c-2.881,0-5.032-0.811-6.579-2.477
		c-1.571-1.698-2.333-3.884-2.333-6.69c0-2.8,0.762-4.987,2.333-6.684c1.547-1.671,3.698-2.48,6.579-2.48
		c2.882,0,5.031,0.81,6.587,2.48c1.564,1.697,2.335,3.884,2.335,6.684C292.734,75.571,291.964,77.757,290.399,79.455z"/>
	<path fill="#FFFFFF" d="M348.421,56.343c-1.767-2.011-3.949-3.571-6.495-4.654c-5.217-2.204-12.107-2.056-17.726-0.015
		c-2.918,1.06-5.486,2.602-7.645,4.585c-2.161,1.985-3.886,4.394-5.128,7.171c-1.243,2.784-1.878,5.926-1.878,9.334
		c0,3.412,0.635,6.557,1.878,9.339c1.242,2.775,2.967,5.188,5.128,7.176c2.158,1.978,4.727,3.523,7.645,4.577
		c2.894,1.062,6.028,1.589,9.296,1.589c3.474,0,6.869-0.738,10.103-2.205c3.251-1.48,5.983-3.611,8.116-6.338l0.76-0.979
		l-10.81-7.922l-0.708,0.971c-0.975,1.332-2.131,2.435-3.435,3.28c-1.222,0.789-2.777,1.196-4.613,1.196
		c-2.199,0-3.983-0.611-5.457-1.863c-1.146-0.965-1.971-2.17-2.494-3.661h28.949v-5.16c0-3.371-0.479-6.475-1.412-9.232
		C351.545,60.755,350.18,58.335,348.421,56.343z M324.768,66.934c0.106-0.413,0.247-0.814,0.426-1.215
		c0.352-0.771,0.854-1.467,1.496-2.058c0.646-0.608,1.458-1.112,2.381-1.502c0.918-0.383,2.011-0.578,3.249-0.578
		c1.981,0,3.546,0.621,4.788,1.905c0.957,1.002,1.526,2.135,1.707,3.448H324.768z"/>
	<path fill="#FFFFFF" d="M394.354,56.008c-1.562-1.954-3.661-3.453-6.234-4.455c-2.515-0.975-5.731-1.471-9.574-1.471
		c-3.487,0-6.903,0.576-10.164,1.714c-3.289,1.141-6.207,2.889-8.683,5.176l-0.9,0.836l8.5,8.708l0.848-0.959
		c1.247-1.401,2.671-2.51,4.248-3.31c1.533-0.78,3.261-1.175,5.136-1.175c1.923,0,3.537,0.559,4.934,1.708
		c1.024,0.847,1.646,1.909,1.868,3.238c-1.39,0.009-2.864,0.032-4.426,0.076c-2.086,0.056-4.203,0.237-6.282,0.516
		c-2.111,0.287-4.177,0.748-6.135,1.354c-2.021,0.624-3.853,1.514-5.438,2.655c-1.632,1.169-2.944,2.666-3.899,4.451
		c-0.959,1.791-1.444,3.996-1.444,6.545c0,2.26,0.436,4.283,1.302,6.01c0.868,1.725,2.052,3.193,3.53,4.363
		c1.464,1.156,3.165,2.037,5.076,2.607c1.872,0.574,3.843,0.852,5.867,0.852c2.719,0,5.355-0.508,7.819-1.521
		c1.562-0.637,2.937-1.529,4.126-2.68v3.188h14.019v-22c0-3.494-0.293-6.629-0.871-9.309
		C396.983,60.339,395.891,57.948,394.354,56.008z M384.428,77.988c0,1.085-0.217,2.016-0.646,2.791
		c-0.456,0.798-1.036,1.438-1.784,1.957c-0.791,0.537-1.712,0.97-2.736,1.267c-2.159,0.632-4.546,0.739-6.697-0.48
		c-0.921-0.521-1.331-1.235-1.331-2.329c0-1.045,0.315-1.822,0.97-2.371c0.792-0.678,1.785-1.194,2.93-1.537
		c1.233-0.362,2.528-0.594,3.861-0.668c1.403-0.086,2.577-0.127,3.509-0.127h1.925V77.988z"/>
	<path fill="#FFFFFF" d="M437.28,73.913c-1.14-1.694-2.611-3.057-4.364-4.038c-1.7-0.956-3.534-1.667-5.457-2.108l-5.142-1.181
		c-1.517-0.339-2.769-0.744-3.725-1.18c-0.765-0.351-0.869-0.755-0.869-1.149c0-0.981,0.436-1.331,0.862-1.546
		c0.846-0.419,1.693-0.626,2.582-0.626c2.673,0,4.766,0.986,6.396,3.006l0.827,1.034l9.529-9.42l-0.807-0.852
		c-2.052-2.168-4.582-3.701-7.529-4.542c-5.119-1.462-10.223-1.637-15.118-0.39c-2.215,0.57-4.201,1.464-5.908,2.668
		c-1.745,1.222-3.172,2.8-4.237,4.691c-1.077,1.914-1.625,4.208-1.625,6.817c0,2.816,0.594,5.13,1.764,6.861
		c1.146,1.702,2.623,3.04,4.396,3.971c1.681,0.889,3.51,1.562,5.426,2.006l5.142,1.175c1.501,0.345,2.736,0.767,3.683,1.248
		c0.805,0.416,0.911,0.911,0.911,1.341c0,0.504-0.168,0.9-0.978,1.191c-1.045,0.373-2.239,0.559-3.555,0.559
		c-1.71,0-3.203-0.332-4.455-1c-1.285-0.674-2.48-1.695-3.548-3.021l-0.882-1.093l-9.354,10.388l0.777,0.801
		c2.163,2.227,4.843,3.791,7.953,4.659c3.016,0.835,6.04,1.263,8.996,1.263c2.254,0,4.568-0.215,6.881-0.646
		c2.374-0.443,4.541-1.23,6.441-2.337c1.952-1.122,3.573-2.637,4.82-4.492c1.285-1.91,1.934-4.328,1.934-7.2
		C439.047,77.961,438.453,75.646,437.28,73.913z"/>
</g>
<g>
	<path fill="#BF311A" d="M651.073,80.638c0.036,0.034,0.071,0.063,0.106,0.097c0.67,0.625,1.463,1.196,2.354,1.695
		c0.881,0.502,1.854,0.916,2.902,1.234c1.067,0.321,2.209,0.487,3.402,0.487c2.416,0,4.646-0.423,6.634-1.257
		c1.988-0.835,3.72-2.029,5.144-3.546c1.424-1.511,2.533-3.331,3.301-5.403c0.758-2.057,1.146-4.342,1.146-6.785
		c0-2.266-0.353-4.466-1.04-6.533c-0.697-2.078-1.692-3.952-2.971-5.564c-1.291-1.627-2.886-2.95-4.742-3.924
		c-1.877-0.982-4.018-1.483-6.376-1.483c-2.108,0-4.095,0.333-5.915,0.985c-1.189,0.423-2.248,1.04-3.173,1.846v-19.36h-11.429
		v50.256h10.657V80.638z M652.85,71.989c-1.193-1.291-1.776-2.954-1.776-5.086c0-2.129,0.583-3.794,1.776-5.084
		c1.178-1.27,2.812-1.888,5.007-1.888c2.185,0,3.82,0.618,5.001,1.888c1.189,1.293,1.772,2.955,1.772,5.084
		c0,2.132-0.583,3.795-1.772,5.086c-1.181,1.269-2.816,1.885-5.001,1.885C655.662,73.874,654.027,73.258,652.85,71.989z"/>
	<rect x="677.446" y="50.424" fill="#BF311A" width="11.427" height="32.958"/>
	<path fill="#BF311A" d="M683.158,48.02c1.785,0,3.326-0.643,4.586-1.904c1.258-1.26,1.896-2.796,1.896-4.584
		c0-1.78-0.639-3.321-1.896-4.584c-1.26-1.26-2.801-1.899-4.586-1.899c-1.777,0-3.32,0.64-4.58,1.899
		c-1.262,1.263-1.9,2.804-1.9,4.584c0,1.788,0.639,3.324,1.9,4.584C679.838,47.377,681.381,48.02,683.158,48.02z"/>
	<path fill="#BF311A" d="M706.995,98.758c6.29,0,11.067-1.636,14.199-4.856c3.126-3.217,4.708-7.945,4.708-14.054V50.424h-10.656
		v2.772c-0.054-0.043-0.102-0.087-0.15-0.134c-0.692-0.624-1.528-1.195-2.495-1.699c-0.947-0.497-2.035-0.91-3.229-1.229
		c-1.207-0.316-2.547-0.479-3.98-0.479c-2.362,0-4.504,0.501-6.381,1.483c-1.855,0.97-3.445,2.265-4.734,3.853
		c-1.285,1.57-2.281,3.415-2.979,5.472c-0.688,2.046-1.039,4.17-1.039,6.313c0,2.449,0.387,4.73,1.146,6.786
		c0.767,2.07,1.872,3.888,3.296,5.398c1.428,1.521,3.16,2.718,5.148,3.548c1.982,0.836,4.212,1.259,6.633,1.259
		c1.551,0,3.221-0.333,4.966-0.988c1.115-0.419,2.129-1.031,3.028-1.826v0.816c0,1.991-0.596,3.576-1.824,4.842
		c-1.204,1.242-3.174,1.869-5.849,1.869c-1.829,0-3.526-0.34-5.047-1.009c-1.563-0.692-3.076-1.639-4.499-2.816l-0.775-0.641
		l-6.342,9.477l0.656,0.521c2.363,1.872,4.98,3.146,7.797,3.793C701.337,98.441,704.166,98.758,706.995,98.758z M702.192,64.148
		c0.339-0.804,0.823-1.525,1.437-2.144c0.626-0.624,1.361-1.136,2.177-1.514c0.792-0.371,1.688-0.56,2.661-0.56
		c0.927,0,1.816,0.188,2.636,0.562c0.838,0.379,1.579,0.888,2.2,1.512c0.616,0.618,1.098,1.34,1.436,2.144
		c0.334,0.803,0.508,1.662,0.508,2.563c0,0.9-0.174,1.762-0.508,2.562c-0.335,0.807-0.819,1.53-1.436,2.142
		c-0.627,0.626-1.367,1.135-2.2,1.514c-1.675,0.761-3.745,0.725-5.297,0.002c-0.815-0.374-1.548-0.885-2.177-1.516
		c-0.618-0.611-1.103-1.335-1.437-2.142c-0.331-0.801-0.507-1.662-0.507-2.562C701.686,65.811,701.861,64.951,702.192,64.148z"/>
	<path fill="#BF311A" d="M733.381,79.458c1.641,1.508,3.596,2.681,5.816,3.483c2.2,0.807,4.58,1.21,7.069,1.21
		c2.487,0,4.866-0.403,7.065-1.21c2.221-0.803,4.174-1.976,5.816-3.483c1.645-1.509,2.959-3.344,3.896-5.455
		c0.952-2.115,1.428-4.504,1.428-7.1c0-2.594-0.476-4.98-1.428-7.1c-0.938-2.109-2.252-3.944-3.896-5.456
		c-1.643-1.508-3.6-2.681-5.816-3.481c-4.407-1.604-9.727-1.604-14.135,0c-2.215,0.804-4.173,1.974-5.816,3.481
		c-1.645,1.512-2.953,3.347-3.9,5.456c-0.942,2.119-1.428,4.506-1.428,7.1c0,2.596,0.485,4.984,1.428,7.1
		C730.428,76.114,731.736,77.951,733.381,79.458z M746.267,59.932c2.187,0,3.821,0.618,5.003,1.888
		c1.195,1.29,1.772,2.955,1.772,5.084c0,2.132-0.577,3.795-1.772,5.086c-1.182,1.269-2.816,1.885-5.003,1.885
		c-2.194,0-3.828-0.616-5.001-1.885c-1.199-1.291-1.775-2.954-1.775-5.086c0-2.129,0.576-3.794,1.775-5.084
		C742.438,60.55,744.076,59.932,746.267,59.932z"/>
	<path fill="#BF311A" d="M782.014,59.932c1.027,0,1.797,0.195,2.297,0.581c0.531,0.415,0.921,0.938,1.181,1.598
		c0.286,0.722,0.458,1.526,0.515,2.387c0.062,0.941,0.098,1.847,0.098,2.728v16.157h11.428V65.301c0-2.129-0.158-4.142-0.459-5.978
		c-0.32-1.906-0.934-3.595-1.828-5.017c-0.916-1.459-2.213-2.612-3.853-3.433c-1.617-0.805-3.735-1.219-6.302-1.219
		c-1.238,0-2.402,0.165-3.469,0.488c-1.053,0.32-2.01,0.738-2.834,1.252c-0.767,0.462-1.439,0.994-2.014,1.582v-2.554h-11.045
		v32.958h11.429V66.97c0-0.978,0.062-1.931,0.186-2.824c0.11-0.83,0.347-1.575,0.7-2.223c0.326-0.602,0.789-1.074,1.419-1.441
		C780.088,60.12,780.946,59.932,782.014,59.932z"/>
	<path fill="#BF311A" d="M805.781,48.02c1.78,0,3.323-0.643,4.588-1.904c1.262-1.26,1.9-2.796,1.9-4.584
		c0-1.78-0.639-3.321-1.9-4.584c-1.265-1.26-2.808-1.899-4.588-1.899c-1.779,0-3.322,0.64-4.584,1.899
		c-1.255,1.263-1.895,2.804-1.895,4.584c0,1.788,0.64,3.324,1.895,4.584C802.459,47.377,804.002,48.02,805.781,48.02z"/>
	<rect x="800.07" y="50.424" fill="#BF311A" width="11.428" height="32.958"/>
	<path fill="#BF311A" d="M817.324,79.349c1.427,1.519,3.16,2.711,5.146,3.546c1.984,0.834,4.217,1.257,6.633,1.257
		c1.146,0,2.279-0.166,3.367-0.487c1.066-0.318,2.058-0.732,2.94-1.234c0.89-0.499,1.684-1.067,2.353-1.695
		c0.036-0.033,0.07-0.062,0.105-0.097v2.744h10.662V33.126h-11.434v19.36c-0.925-0.806-1.986-1.423-3.173-1.846
		c-1.819-0.652-3.808-0.985-5.91-0.985c-2.36,0-4.503,0.501-6.382,1.483c-1.859,0.974-3.453,2.294-4.741,3.924
		c-1.278,1.617-2.278,3.486-2.97,5.564c-0.688,2.067-1.041,4.264-1.041,6.533c0,2.45,0.389,4.732,1.146,6.785
		C814.793,76.014,815.9,77.833,817.324,79.349z M824.309,66.903c0-2.129,0.582-3.794,1.781-5.084
		c1.176-1.27,2.811-1.888,5.001-1.888c2.192,0,3.827,0.618,5.003,1.888c1.194,1.29,1.775,2.955,1.775,5.084
		c0,2.132-0.581,3.795-1.775,5.086c-1.176,1.269-2.811,1.885-5.003,1.885c-2.19,0-3.825-0.616-5.001-1.885
		C824.891,70.698,824.309,69.035,824.309,66.903z"/>
	<path fill="#BF311A" d="M876.764,82.467c2.473-1.122,4.547-2.744,6.17-4.814l0.578-0.741l-8.215-6.026l-0.543,0.733
		c-0.74,1.02-1.617,1.859-2.609,2.5c-0.936,0.604-2.117,0.911-3.512,0.911c-1.668,0-3.023-0.468-4.152-1.42
		c-0.865-0.736-1.494-1.652-1.891-2.784h22.008v-3.922c0-2.561-0.361-4.924-1.07-7.021c-0.717-2.111-1.764-3.948-3.092-5.465
		c-1.346-1.528-3.012-2.718-4.943-3.536c-3.969-1.681-9.205-1.57-13.48-0.015c-2.215,0.804-4.168,1.979-5.812,3.481
		c-1.648,1.512-2.957,3.347-3.9,5.46c-0.943,2.115-1.424,4.502-1.424,7.096c0,2.596,0.48,4.984,1.424,7.1
		c0.943,2.111,2.256,3.946,3.9,5.455c1.639,1.508,3.598,2.68,5.812,3.483c2.203,0.807,4.584,1.21,7.068,1.21
		C871.721,84.151,874.309,83.583,876.764,82.467z M865.719,58.839c0.695-0.297,1.523-0.442,2.469-0.442
		c1.506,0,2.695,0.472,3.635,1.449c0.732,0.764,1.164,1.627,1.299,2.624h-10.676c0.078-0.312,0.186-0.622,0.32-0.923
		c0.27-0.594,0.652-1.116,1.139-1.567C864.4,59.52,865.01,59.133,865.719,58.839z"/>
	<path fill="#BF311A" d="M889.465,81.52c1.115,0.879,2.41,1.548,3.859,1.979c1.424,0.437,2.922,0.652,4.461,0.652
		c2.072,0,4.076-0.389,5.949-1.158c1.186-0.484,2.234-1.167,3.133-2.04v2.429h10.662V66.647c0-2.657-0.221-5.037-0.662-7.077
		c-0.449-2.116-1.277-3.934-2.449-5.403c-1.189-1.495-2.787-2.631-4.738-3.392c-1.912-0.742-4.363-1.12-7.285-1.12
		c-2.652,0-5.25,0.439-7.73,1.301c-2.498,0.87-4.715,2.197-6.598,3.941l-0.682,0.633l6.459,6.62l0.645-0.729
		c0.947-1.062,2.033-1.907,3.23-2.518c1.168-0.591,2.482-0.894,3.91-0.894c1.463,0,2.688,0.423,3.746,1.301
		c0.783,0.642,1.256,1.454,1.424,2.459c-1.059,0.008-2.178,0.027-3.369,0.062c-1.586,0.044-3.193,0.176-4.777,0.391
		c-1.604,0.22-3.172,0.569-4.662,1.028c-1.533,0.473-2.926,1.153-4.133,2.019c-1.244,0.888-2.238,2.03-2.967,3.385
		c-0.73,1.36-1.104,3.04-1.104,4.978c0,1.722,0.336,3.258,0.994,4.57C887.441,79.513,888.34,80.63,889.465,81.52z M896.836,73.311
		c0-0.792,0.24-1.383,0.736-1.804c0.605-0.514,1.355-0.906,2.23-1.167c0.936-0.277,1.922-0.452,2.936-0.507
		c1.07-0.064,1.957-0.097,2.666-0.097h1.463v1.143c0,0.819-0.162,1.529-0.488,2.114c-0.344,0.609-0.785,1.098-1.357,1.491
		c-0.6,0.411-1.299,0.735-2.08,0.965c-1.645,0.478-3.451,0.559-5.094-0.368C897.15,74.686,896.836,74.139,896.836,73.311z"/>
	<path fill="#BF311A" d="M934.832,74.604c-0.799,0.281-1.707,0.426-2.707,0.426c-1.295,0-2.432-0.255-3.385-0.762
		c-0.977-0.517-1.887-1.289-2.701-2.296l-0.664-0.832l-7.119,7.896l0.596,0.613c1.645,1.688,3.68,2.878,6.047,3.538
		c2.291,0.639,4.592,0.965,6.84,0.965c1.713,0,3.473-0.168,5.23-0.497c1.807-0.339,3.451-0.935,4.9-1.771
		c1.486-0.855,2.715-2.01,3.662-3.419c0.975-1.451,1.473-3.292,1.473-5.475c0-2.137-0.453-3.893-1.344-5.213
		c-0.863-1.291-1.984-2.323-3.318-3.076c-1.291-0.721-2.684-1.262-4.148-1.596l-3.912-0.899c-1.15-0.261-2.104-0.564-2.834-0.9
		c-0.578-0.265-0.656-0.576-0.656-0.871c0-0.746,0.33-1.011,0.652-1.172c0.643-0.324,1.285-0.481,1.965-0.481
		c2.031,0,3.621,0.749,4.865,2.286l0.625,0.787l7.246-7.162l-0.613-0.649c-1.555-1.647-3.48-2.812-5.725-3.452
		c-3.893-1.11-7.773-1.249-11.498-0.298c-1.68,0.436-3.191,1.113-4.49,2.03c-1.326,0.93-2.412,2.128-3.219,3.563
		c-0.818,1.455-1.236,3.203-1.236,5.187c0,2.142,0.447,3.899,1.338,5.218c0.873,1.291,1.998,2.31,3.346,3.021
		c1.279,0.673,2.666,1.188,4.125,1.521l3.91,0.896c1.141,0.26,2.08,0.582,2.799,0.95c0.611,0.313,0.691,0.688,0.691,1.016
		C935.572,74.081,935.443,74.381,934.832,74.604z"/>
	<polygon fill="#BF311A" points="660.597,135.24 657.988,117.263 655.582,117.263 647.926,135.24 647.869,135.24 645.344,117.263 
		643.396,117.263 646.464,137.561 648.786,137.561 656.436,119.503 656.494,119.503 659.103,137.561 661.425,137.561 
		670.169,117.263 668.221,117.263 660.654,135.24 	"/>
	<path fill="#BF311A" d="M678.04,135.726c-0.89,0.423-1.772,0.63-2.653,0.63c-1.014,0-1.811-0.19-2.392-0.573
		c-0.583-0.381-1.028-0.839-1.337-1.375c-0.303-0.534-0.488-1.083-0.56-1.647c-0.066-0.565-0.066-1.026-0.013-1.392h11.125
		l0.17-1.202c0.115-0.766,0.093-1.522-0.07-2.267c-0.166-0.747-0.471-1.408-0.92-1.993c-0.45-0.582-1.036-1.049-1.76-1.402
		c-0.726-0.354-1.594-0.532-2.609-0.532c-0.973,0-1.885,0.179-2.74,0.532c-0.851,0.354-1.612,0.843-2.291,1.459
		c-0.68,0.625-1.244,1.354-1.693,2.195s-0.74,1.758-0.872,2.755c-0.155,1.029-0.129,1.969,0.069,2.819
		c0.203,0.851,0.557,1.587,1.064,2.21c0.506,0.619,1.145,1.104,1.915,1.444c0.776,0.347,1.671,0.515,2.685,0.515
		c1.186,0,2.296-0.217,3.34-0.655c1.041-0.442,1.976-1.165,2.791-2.179l-1.115-1.062
		C679.637,134.733,678.926,135.306,678.04,135.726z M671.646,128.86c0.219-0.468,0.55-0.949,0.986-1.446
		c0.446-0.497,1.002-0.938,1.68-1.318c0.679-0.383,1.484-0.573,2.424-0.573c0.629,0,1.207,0.114,1.731,0.342
		c0.524,0.231,0.975,0.539,1.337,0.932c0.359,0.393,0.615,0.848,0.77,1.362c0.15,0.515,0.189,1.07,0.114,1.66h-9.404
		C671.307,129.649,671.425,129.331,671.646,128.86z"/>
	<path fill="#BF311A" d="M703.377,124.575c-0.771-0.401-1.648-0.604-2.623-0.604c-1.014,0-1.969,0.171-2.882,0.518
		c-0.902,0.343-1.71,0.827-2.405,1.446c-0.697,0.623-1.277,1.359-1.746,2.21c-0.471,0.851-0.774,1.78-0.906,2.793
		c-0.15,1.014-0.115,1.943,0.113,2.794c0.232,0.851,0.607,1.587,1.132,2.21c0.53,0.619,1.199,1.104,2.011,1.444
		c0.811,0.347,1.723,0.515,2.736,0.515c0.951,0,1.863-0.184,2.736-0.556c0.869-0.374,1.688-0.948,2.451-1.736l-1.178-1.088
		c-0.51,0.556-1.092,1.001-1.744,1.333c-0.652,0.336-1.34,0.501-2.067,0.501c-0.802,0-1.507-0.143-2.119-0.428
		c-0.613-0.286-1.106-0.673-1.489-1.164c-0.385-0.484-0.652-1.059-0.803-1.717c-0.154-0.662-0.172-1.362-0.058-2.108
		c0.114-0.745,0.335-1.447,0.669-2.105c0.336-0.662,0.77-1.235,1.291-1.719c0.53-0.491,1.134-0.878,1.821-1.164
		c0.688-0.285,1.437-0.428,2.24-0.428c0.688,0,1.299,0.156,1.831,0.472c0.539,0.316,1.023,0.749,1.465,1.304l1.516-1.029
		C704.818,125.54,704.153,124.978,703.377,124.575z"/>
	<path fill="#BF311A" d="M709.842,124.317h-1.719c-0.018,0.172-0.043,0.416-0.074,0.73c-0.027,0.316-0.058,0.655-0.084,1.017
		c-0.03,0.363-0.061,0.724-0.102,1.075c-0.035,0.352-0.074,0.657-0.114,0.904l-1.317,9.517h1.718l1.005-7.226
		c0.098-0.648,0.27-1.255,0.518-1.82c0.246-0.559,0.58-1.052,1.004-1.475c0.419-0.42,0.916-0.751,1.488-0.988
		c0.574-0.238,1.235-0.358,1.977-0.358c0.215,0,0.422,0.036,0.634,0.116l0.431-1.692c-0.347-0.097-0.673-0.146-0.979-0.146
		c-0.99,0-1.868,0.25-2.622,0.747c-0.753,0.495-1.409,1.137-1.961,1.919c-0.018-0.132,0-0.428,0.058-0.886
		C709.758,125.29,709.802,124.815,709.842,124.317z"/>
	<path fill="#BF311A" d="M724.708,137.246c1.04-0.442,1.97-1.165,2.794-2.179l-1.12-1.062c-0.532,0.729-1.246,1.301-2.138,1.721
		c-0.885,0.423-1.771,0.63-2.648,0.63c-1.013,0-1.811-0.19-2.397-0.573c-0.581-0.381-1.021-0.839-1.327-1.375
		c-0.308-0.534-0.492-1.083-0.559-1.647c-0.07-0.565-0.075-1.026-0.018-1.392h11.123l0.174-1.202
		c0.113-0.766,0.086-1.522-0.072-2.267c-0.162-0.747-0.467-1.408-0.916-1.993c-0.45-0.582-1.041-1.049-1.768-1.402
		c-0.723-0.354-1.596-0.532-2.609-0.532c-0.973,0-1.885,0.179-2.737,0.532c-0.846,0.354-1.612,0.843-2.292,1.459
		c-0.678,0.625-1.238,1.354-1.687,2.195c-0.45,0.841-0.745,1.758-0.878,2.755c-0.15,1.029-0.133,1.969,0.071,2.819
		c0.203,0.851,0.556,1.587,1.062,2.21c0.508,0.619,1.15,1.104,1.922,1.444c0.771,0.347,1.666,0.515,2.68,0.515
		C722.549,137.901,723.664,137.685,724.708,137.246z M717.855,128.86c0.219-0.468,0.545-0.949,0.99-1.446
		c0.437-0.497,0.996-0.938,1.676-1.318c0.678-0.383,1.484-0.573,2.424-0.573c0.63,0,1.207,0.114,1.732,0.342
		c0.523,0.231,0.968,0.539,1.334,0.932c0.361,0.393,0.621,0.848,0.771,1.362c0.155,0.515,0.193,1.07,0.115,1.66h-9.401
		C717.515,129.649,717.635,129.331,717.855,128.86z"/>
	<path fill="#BF311A" d="M740.34,137.561h1.607c0-0.382,0.01-0.765,0.027-1.146c0.019-0.383,0.049-0.793,0.088-1.231
		c0.041-0.442,0.089-0.92,0.16-1.435c0.061-0.516,0.145-1.1,0.242-1.748l0.458-3.239c0.229-1.684-0.079-2.9-0.935-3.655
		c-0.851-0.756-2.076-1.135-3.68-1.135c-0.86,0-1.78,0.158-2.755,0.476c-0.974,0.313-1.823,0.775-2.552,1.39l0.833,1.176
		c1.301-0.994,2.724-1.49,4.271-1.49c1.071,0,1.922,0.247,2.551,0.746c0.631,0.497,0.869,1.316,0.719,2.463l-0.115,0.804h-2.009
		c-0.647,0-1.405,0.042-2.265,0.126c-0.855,0.087-1.685,0.28-2.477,0.577c-0.795,0.296-1.495,0.739-2.106,1.33
		c-0.613,0.594-0.983,1.397-1.12,2.409c-0.097,0.707-0.041,1.306,0.158,1.805c0.198,0.499,0.504,0.904,0.904,1.222
		c0.401,0.313,0.867,0.542,1.405,0.688c0.529,0.143,1.089,0.21,1.662,0.21c1.128,0,2.083-0.197,2.878-0.599
		c0.797-0.402,1.498-1.031,2.105-1.894h0.059c-0.059,0.381-0.094,0.756-0.115,1.12C740.322,136.893,740.322,137.236,740.34,137.561z
		 M739.557,134.909c-0.41,0.43-0.936,0.781-1.566,1.048c-0.629,0.266-1.405,0.398-2.322,0.398c-0.361,0-0.713-0.052-1.057-0.157
		c-0.35-0.103-0.648-0.256-0.904-0.458c-0.26-0.2-0.458-0.458-0.59-0.773c-0.133-0.315-0.172-0.674-0.115-1.074
		c0.074-0.575,0.312-1.053,0.705-1.434c0.393-0.384,0.869-0.688,1.432-0.916c0.564-0.231,1.194-0.393,1.892-0.489
		c0.696-0.097,1.411-0.141,2.137-0.141h1.892l-0.115,0.885c-0.075,0.555-0.225,1.102-0.445,1.649
		C740.277,133.992,739.966,134.479,739.557,134.909z"/>
	<path fill="#BF311A" d="M752.984,135.9c-0.326,0.132-0.662,0.242-1.02,0.327c-0.352,0.089-0.691,0.128-1.018,0.128
		c-0.571,0-0.999-0.158-1.273-0.484c-0.277-0.326-0.369-0.784-0.273-1.378l1.207-8.629h3.782l0.198-1.547h-3.786l0.548-3.812h-1.72
		l-0.542,3.812h-2.869l-0.202,1.547h2.868l-1.203,8.629c-0.074,0.478-0.084,0.923-0.012,1.333c0.061,0.413,0.215,0.771,0.439,1.074
		c0.229,0.306,0.551,0.549,0.961,0.733c0.41,0.181,0.922,0.268,1.537,0.268c0.324,0,0.701-0.044,1.146-0.141
		c0.436-0.097,0.82-0.2,1.146-0.314L752.984,135.9z"/>
	<path fill="#BF311A" d="M767.965,125.906c-0.451-0.582-1.041-1.049-1.768-1.402c-0.723-0.354-1.597-0.532-2.605-0.532
		c-0.975,0-1.891,0.179-2.742,0.532c-0.846,0.354-1.611,0.843-2.291,1.459c-0.678,0.625-1.238,1.354-1.688,2.195
		c-0.448,0.841-0.744,1.758-0.876,2.755c-0.15,1.029-0.128,1.969,0.07,2.819c0.202,0.851,0.556,1.587,1.062,2.21
		c0.506,0.619,1.15,1.104,1.922,1.444c0.77,0.347,1.666,0.515,2.68,0.515c1.181,0,2.295-0.217,3.34-0.655
		c1.04-0.442,1.969-1.165,2.794-2.179l-1.12-1.062c-0.532,0.729-1.247,1.301-2.137,1.721c-0.886,0.423-1.771,0.63-2.648,0.63
		c-1.014,0-1.811-0.19-2.393-0.573c-0.586-0.381-1.027-0.839-1.332-1.375c-0.309-0.534-0.494-1.083-0.559-1.647
		c-0.07-0.565-0.076-1.026-0.018-1.392h11.123l0.171-1.202c0.114-0.766,0.089-1.522-0.069-2.267
		C768.718,127.152,768.413,126.491,767.965,125.906z M767.259,129.818h-9.401c0.018-0.169,0.138-0.487,0.361-0.958
		c0.217-0.468,0.543-0.949,0.988-1.446c0.436-0.497,0.996-0.938,1.676-1.318c0.678-0.383,1.484-0.573,2.422-0.573
		c0.631,0,1.209,0.114,1.732,0.342c0.525,0.231,0.969,0.539,1.336,0.932c0.361,0.393,0.621,0.848,0.771,1.362
		C767.298,128.673,767.338,129.229,767.259,129.818z"/>
	<path fill="#BF311A" d="M781.881,115.888l-3.041,21.673h1.719l0.318-2.32h0.057c0.19,0.458,0.463,0.855,0.814,1.189
		c0.354,0.332,0.76,0.609,1.205,0.829c0.449,0.22,0.924,0.385,1.423,0.489c0.494,0.104,0.991,0.153,1.489,0.153
		c1.014,0,1.967-0.168,2.865-0.515c0.898-0.341,1.701-0.825,2.411-1.444c0.705-0.623,1.286-1.359,1.745-2.21
		c0.458-0.851,0.766-1.78,0.916-2.794c0.137-1.013,0.092-1.942-0.127-2.793c-0.221-0.851-0.601-1.587-1.133-2.21
		c-0.538-0.619-1.203-1.104-2.006-1.446c-0.801-0.347-1.71-0.518-2.723-0.518c-0.5,0-1.006,0.055-1.534,0.158
		c-0.524,0.104-1.046,0.27-1.548,0.487c-0.506,0.221-0.982,0.499-1.432,0.831c-0.449,0.334-0.838,0.731-1.163,1.189h-0.058
		l1.517-10.75H781.881z M783.441,127.114c0.564-0.491,1.207-0.878,1.922-1.164c0.719-0.285,1.463-0.428,2.247-0.428
		c0.808,0,1.513,0.143,2.126,0.428c0.611,0.286,1.105,0.673,1.488,1.164c0.383,0.483,0.648,1.057,0.803,1.719
		c0.148,0.658,0.172,1.36,0.057,2.105c-0.114,0.746-0.339,1.446-0.674,2.108c-0.334,0.658-0.762,1.232-1.292,1.717
		c-0.524,0.491-1.133,0.878-1.815,1.164c-0.692,0.285-1.437,0.428-2.234,0.428c-0.789,0-1.494-0.143-2.125-0.428
		c-0.629-0.286-1.164-0.673-1.594-1.164c-0.428-0.484-0.736-1.059-0.93-1.717c-0.191-0.662-0.229-1.362-0.115-2.108
		c0.115-0.745,0.361-1.447,0.736-2.105C782.41,128.171,782.877,127.598,783.441,127.114z"/>
	<path fill="#BF311A" d="M798.447,137.561l1.006-7.226c0.092-0.648,0.264-1.255,0.512-1.82c0.25-0.559,0.586-1.052,1.009-1.475
		c0.418-0.42,0.917-0.751,1.485-0.988c0.577-0.238,1.234-0.358,1.979-0.358c0.211,0,0.422,0.036,0.631,0.116l0.431-1.692
		c-0.344-0.097-0.67-0.146-0.974-0.146c-0.996,0-1.869,0.25-2.622,0.747c-0.754,0.495-1.411,1.137-1.966,1.919
		c-0.018-0.132,0-0.428,0.059-0.886c0.057-0.462,0.104-0.937,0.145-1.435h-1.719c-0.022,0.172-0.045,0.416-0.076,0.73
		c-0.025,0.316-0.057,0.655-0.084,1.017c-0.03,0.363-0.066,0.724-0.1,1.075c-0.041,0.352-0.079,0.657-0.115,0.904l-1.318,9.517
		H798.447z"/>
	<path fill="#BF311A" d="M815.274,135.409h0.058c-0.058,0.381-0.094,0.756-0.115,1.12c-0.017,0.363-0.017,0.707,0,1.031h1.604
		c0-0.382,0.015-0.765,0.033-1.146c0.016-0.383,0.043-0.793,0.084-1.231c0.038-0.442,0.092-0.92,0.158-1.435
		c0.065-0.516,0.149-1.1,0.246-1.748l0.453-3.239c0.229-1.684-0.078-2.9-0.93-3.655c-0.85-0.756-2.074-1.135-3.684-1.135
		c-0.861,0-1.777,0.158-2.75,0.476c-0.975,0.313-1.829,0.775-2.553,1.39l0.834,1.176c1.295-0.994,2.719-1.49,4.27-1.49
		c1.072,0,1.922,0.247,2.547,0.746c0.637,0.497,0.873,1.316,0.723,2.463l-0.119,0.804h-2.004c-0.652,0-1.406,0.042-2.266,0.126
		c-0.859,0.087-1.684,0.28-2.48,0.577c-0.793,0.296-1.495,0.739-2.104,1.33c-0.617,0.594-0.986,1.397-1.119,2.409
		c-0.096,0.707-0.043,1.306,0.154,1.805c0.203,0.499,0.503,0.904,0.908,1.222c0.396,0.313,0.868,0.542,1.4,0.688
		c0.535,0.143,1.09,0.21,1.662,0.21c1.129,0,2.09-0.197,2.883-0.599C813.961,136.9,814.661,136.271,815.274,135.409z
		 M810.546,136.355c-0.366,0-0.714-0.052-1.062-0.157c-0.344-0.103-0.649-0.256-0.899-0.458c-0.26-0.2-0.458-0.458-0.591-0.773
		s-0.173-0.674-0.115-1.074c0.074-0.575,0.314-1.053,0.706-1.434c0.388-0.384,0.868-0.688,1.429-0.916
		c0.562-0.231,1.197-0.393,1.895-0.489c0.695-0.097,1.405-0.141,2.132-0.141h1.896l-0.113,0.885
		c-0.076,0.555-0.23,1.102-0.446,1.649c-0.221,0.545-0.537,1.031-0.947,1.462c-0.409,0.43-0.93,0.781-1.565,1.048
		C812.237,136.223,811.463,136.355,810.546,136.355z"/>
	<path fill="#BF311A" d="M827.314,125.854c0.59-0.223,1.203-0.331,1.833-0.331c0.688,0,1.229,0.119,1.622,0.356
		c0.389,0.241,0.683,0.561,0.873,0.961c0.189,0.401,0.295,0.855,0.313,1.362c0.021,0.506-0.01,1.026-0.084,1.561l-1.089,7.798h1.719
		l1.089-7.884c0.097-0.727,0.122-1.43,0.087-2.121c-0.039-0.688-0.207-1.294-0.502-1.82c-0.3-0.525-0.754-0.948-1.361-1.274
		c-0.612-0.326-1.432-0.489-2.463-0.489c-0.538,0-1.055,0.072-1.551,0.215c-0.494,0.145-0.957,0.335-1.376,0.574
		c-0.425,0.239-0.799,0.521-1.133,0.846c-0.335,0.326-0.613,0.67-0.846,1.031h-0.084c-0.018-0.132,0-0.428,0.057-0.886
		c0.058-0.462,0.106-0.937,0.142-1.435h-1.719c-0.018,0.172-0.045,0.416-0.07,0.73c-0.031,0.316-0.059,0.655-0.09,1.017
		c-0.025,0.363-0.061,0.724-0.1,1.075c-0.035,0.352-0.076,0.657-0.115,0.904l-1.318,9.517h1.72l0.917-6.622
		c0.137-0.916,0.369-1.714,0.705-2.393c0.334-0.68,0.74-1.243,1.22-1.693C826.186,126.403,826.724,126.071,827.314,125.854z"/>
	<path fill="#BF311A" d="M850.387,137.561l3.041-21.673h-1.719l-1.518,10.75h-0.057c-0.211-0.458-0.488-0.855-0.838-1.189
		c-0.338-0.332-0.74-0.61-1.186-0.831c-0.449-0.218-0.92-0.383-1.424-0.487c-0.492-0.104-0.99-0.158-1.484-0.158
		c-1.014,0-1.979,0.171-2.883,0.518c-0.906,0.343-1.709,0.827-2.406,1.446c-0.7,0.623-1.281,1.359-1.75,2.21
		c-0.466,0.851-0.771,1.78-0.902,2.793c-0.154,1.014-0.115,1.943,0.113,2.794c0.229,0.851,0.605,1.587,1.133,2.21
		c0.525,0.619,1.195,1.104,2.007,1.444c0.81,0.347,1.722,0.515,2.735,0.515c0.498,0,1.01-0.05,1.535-0.153
		c0.523-0.104,1.045-0.27,1.551-0.489c0.502-0.22,0.979-0.497,1.434-0.829c0.443-0.334,0.832-0.731,1.158-1.189h0.061l-0.316,2.32
		H850.387z M847.623,134.764c-0.564,0.491-1.203,0.878-1.922,1.164c-0.715,0.285-1.463,0.428-2.248,0.428
		c-0.802,0-1.51-0.143-2.119-0.428c-0.617-0.286-1.111-0.673-1.494-1.164c-0.385-0.484-0.646-1.059-0.803-1.717
		c-0.154-0.662-0.17-1.362-0.058-2.108c0.116-0.745,0.341-1.447,0.675-2.105c0.336-0.662,0.767-1.235,1.291-1.719
		c0.524-0.491,1.133-0.878,1.817-1.164c0.69-0.285,1.437-0.428,2.239-0.428c0.783,0,1.492,0.143,2.119,0.428
		c0.633,0.286,1.162,0.673,1.596,1.164c0.428,0.483,0.738,1.057,0.93,1.719c0.188,0.658,0.229,1.36,0.113,2.105
		c-0.113,0.746-0.361,1.446-0.732,2.108C848.654,133.705,848.188,134.279,847.623,134.764z"/>
	<polygon fill="#BF311A" points="865.9,124.317 864.176,124.317 862.342,137.561 864.062,137.561 	"/>
	<path fill="#BF311A" d="M864.996,118.153c-0.283,0.249-0.445,0.556-0.502,0.917c-0.041,0.364,0.043,0.67,0.256,0.92
		c0.211,0.248,0.498,0.371,0.859,0.371c0.365,0,0.691-0.123,0.973-0.371c0.291-0.25,0.451-0.556,0.49-0.92
		c0.057-0.361-0.027-0.668-0.242-0.917c-0.223-0.245-0.512-0.371-0.873-0.371C865.59,117.782,865.273,117.908,864.996,118.153z"/>
	<path fill="#BF311A" d="M883.555,115.888l-1.521,10.75h-0.057c-0.207-0.458-0.484-0.855-0.828-1.189
		c-0.344-0.332-0.74-0.61-1.189-0.831c-0.451-0.218-0.922-0.383-1.42-0.487c-0.498-0.104-0.996-0.158-1.49-0.158
		c-1.014,0-1.975,0.171-2.883,0.518c-0.906,0.343-1.709,0.827-2.41,1.446c-0.697,0.623-1.277,1.359-1.744,2.21
		c-0.473,0.851-0.771,1.78-0.904,2.793c-0.154,1.014-0.113,1.943,0.115,2.794s0.609,1.587,1.131,2.21
		c0.525,0.619,1.195,1.104,2.006,1.444c0.816,0.347,1.729,0.515,2.742,0.515c0.492,0,1.004-0.05,1.529-0.153
		c0.529-0.104,1.039-0.27,1.547-0.489s0.986-0.497,1.438-0.829c0.449-0.334,0.836-0.731,1.158-1.189h0.057l-0.316,2.32h1.723
		l3.041-21.673H883.555z M881.602,130.938c-0.109,0.746-0.352,1.446-0.727,2.108c-0.375,0.658-0.842,1.232-1.406,1.717
		c-0.564,0.491-1.203,0.878-1.916,1.164c-0.719,0.285-1.473,0.428-2.254,0.428c-0.801,0-1.51-0.143-2.123-0.428
		c-0.609-0.286-1.105-0.673-1.49-1.164c-0.379-0.484-0.646-1.059-0.803-1.717c-0.154-0.662-0.17-1.362-0.057-2.108
		c0.115-0.745,0.34-1.447,0.674-2.105c0.336-0.662,0.764-1.235,1.287-1.719c0.529-0.491,1.135-0.878,1.824-1.164
		c0.688-0.285,1.434-0.428,2.236-0.428c0.783,0,1.488,0.143,2.123,0.428c0.631,0.286,1.158,0.673,1.586,1.164
		c0.434,0.483,0.742,1.057,0.936,1.719C881.68,129.491,881.721,130.193,881.602,130.938z"/>
	<path fill="#BF311A" d="M895.232,135.726c-0.887,0.423-1.77,0.63-2.648,0.63c-1.014,0-1.811-0.19-2.396-0.573
		c-0.582-0.381-1.023-0.839-1.326-1.375c-0.309-0.534-0.494-1.083-0.564-1.647c-0.066-0.565-0.07-1.026-0.014-1.392h11.123
		l0.172-1.202c0.115-0.766,0.088-1.522-0.07-2.267c-0.162-0.747-0.467-1.408-0.916-1.993c-0.449-0.582-1.039-1.049-1.768-1.402
		c-0.723-0.354-1.596-0.532-2.609-0.532c-0.975,0-1.885,0.179-2.736,0.532c-0.848,0.354-1.613,0.843-2.291,1.459
		c-0.68,0.625-1.238,1.354-1.689,2.195c-0.449,0.841-0.744,1.758-0.875,2.755c-0.156,1.029-0.133,1.969,0.068,2.819
		c0.203,0.851,0.555,1.587,1.062,2.21c0.506,0.619,1.146,1.104,1.922,1.444c0.771,0.347,1.666,0.515,2.68,0.515
		c1.182,0,2.297-0.217,3.34-0.655c1.039-0.442,1.971-1.165,2.795-2.179l-1.119-1.062
		C896.836,134.733,896.123,135.306,895.232,135.726z M888.844,128.86c0.219-0.468,0.545-0.949,0.99-1.446
		c0.436-0.497,0.996-0.938,1.676-1.318c0.678-0.383,1.484-0.573,2.424-0.573c0.629,0,1.207,0.114,1.732,0.342
		c0.523,0.231,0.969,0.539,1.33,0.932c0.365,0.393,0.625,0.848,0.775,1.362c0.154,0.515,0.193,1.07,0.115,1.66h-9.4
		C888.504,129.649,888.623,129.331,888.844,128.86z"/>
	<path fill="#BF311A" d="M913.053,124.461c-0.613-0.326-1.434-0.489-2.471-0.489c-0.527,0-1.049,0.072-1.541,0.215
		c-0.504,0.145-0.957,0.335-1.379,0.574c-0.42,0.239-0.799,0.521-1.129,0.846c-0.336,0.326-0.621,0.67-0.85,1.031H905.6
		c-0.018-0.132,0-0.428,0.057-0.886c0.057-0.462,0.105-0.937,0.141-1.435h-1.713c-0.023,0.172-0.045,0.416-0.076,0.73
		c-0.025,0.316-0.057,0.655-0.084,1.017c-0.031,0.363-0.066,0.724-0.1,1.075c-0.041,0.352-0.082,0.657-0.117,0.904l-1.316,9.517
		h1.719l0.916-6.622c0.133-0.916,0.367-1.714,0.701-2.393c0.336-0.68,0.74-1.243,1.217-1.693c0.479-0.449,1.014-0.781,1.609-0.999
		c0.59-0.223,1.201-0.331,1.832-0.331c0.689,0,1.229,0.119,1.617,0.356c0.393,0.241,0.684,0.561,0.877,0.961
		c0.193,0.401,0.295,0.855,0.312,1.362c0.023,0.506-0.004,1.026-0.084,1.561l-1.086,7.798h1.719l1.088-7.884
		c0.096-0.727,0.127-1.43,0.088-2.121c-0.041-0.688-0.209-1.294-0.504-1.82C914.117,125.21,913.664,124.787,913.053,124.461z"/>
	<path fill="#BF311A" d="M919.729,134.493c-0.076,0.478-0.078,0.923-0.014,1.333c0.07,0.413,0.215,0.771,0.445,1.074
		c0.229,0.306,0.551,0.549,0.961,0.733c0.414,0.181,0.926,0.268,1.533,0.268c0.322,0,0.711-0.044,1.146-0.141
		c0.439-0.097,0.822-0.2,1.146-0.314l0.086-1.546c-0.326,0.132-0.664,0.242-1.016,0.327c-0.359,0.089-0.693,0.128-1.02,0.128
		c-0.572,0-0.996-0.158-1.273-0.484s-0.371-0.784-0.273-1.378l1.203-8.629h3.787l0.197-1.547h-3.781l0.541-3.812h-1.719
		l-0.545,3.812h-2.865l-0.199,1.547h2.865L919.729,134.493z"/>
	<path fill="#BF311A" d="M931.795,117.782c-0.361,0-0.684,0.126-0.957,0.371c-0.277,0.249-0.445,0.556-0.5,0.917
		c-0.041,0.364,0.047,0.67,0.254,0.92c0.211,0.248,0.502,0.371,0.863,0.371s0.688-0.123,0.973-0.371
		c0.289-0.25,0.451-0.556,0.486-0.92c0.057-0.361-0.021-0.668-0.242-0.917C932.451,117.908,932.16,117.782,931.795,117.782z"/>
	<polygon fill="#BF311A" points="928.186,137.561 929.91,137.561 931.738,124.317 930.023,124.317 	"/>
	<path fill="#BF311A" d="M941.402,137.446l0.084-1.546c-0.326,0.132-0.66,0.242-1.02,0.327c-0.352,0.089-0.689,0.128-1.016,0.128
		c-0.574,0-1.002-0.158-1.275-0.484c-0.277-0.326-0.369-0.784-0.273-1.378l1.207-8.629h3.781l0.199-1.547h-3.785l0.547-3.812h-1.719
		l-0.543,3.812h-2.869l-0.201,1.547h2.869l-1.205,8.629c-0.074,0.478-0.084,0.923-0.012,1.333c0.061,0.413,0.215,0.771,0.439,1.074
		c0.23,0.306,0.551,0.549,0.961,0.733c0.41,0.181,0.922,0.268,1.537,0.268c0.324,0,0.701-0.044,1.146-0.141
		C940.693,137.664,941.076,137.561,941.402,137.446z"/>
	<polygon fill="#BF311A" points="944.639,137.561 946.359,137.561 948.193,124.317 946.475,124.317 	"/>
	<path fill="#BF311A" d="M947.047,119.99c0.213,0.248,0.5,0.371,0.861,0.371c0.365,0,0.688-0.123,0.973-0.371
		c0.291-0.25,0.451-0.556,0.486-0.92c0.061-0.361-0.018-0.668-0.24-0.917c-0.223-0.245-0.514-0.371-0.875-0.371
		s-0.686,0.126-0.963,0.371c-0.277,0.249-0.443,0.556-0.496,0.917C946.752,119.435,946.836,119.74,947.047,119.99z"/>
	<path fill="#BF311A" d="M952.539,135.942c0.508,0.619,1.146,1.104,1.918,1.444c0.775,0.347,1.666,0.515,2.68,0.515
		c1.186,0,2.299-0.217,3.346-0.655c1.033-0.442,1.969-1.165,2.787-2.179l-1.115-1.062c-0.537,0.729-1.246,1.301-2.137,1.721
		c-0.885,0.423-1.771,0.63-2.652,0.63c-1.008,0-1.809-0.19-2.393-0.573c-0.582-0.381-1.027-0.839-1.33-1.375
		c-0.307-0.534-0.494-1.083-0.561-1.647c-0.066-0.565-0.07-1.026-0.018-1.392h11.127l0.172-1.202
		c0.111-0.766,0.088-1.522-0.07-2.267c-0.168-0.747-0.473-1.408-0.92-1.993c-0.451-0.582-1.037-1.049-1.764-1.402
		c-0.723-0.354-1.596-0.532-2.609-0.532c-0.975,0-1.887,0.179-2.736,0.532c-0.852,0.354-1.617,0.843-2.293,1.459
		c-0.678,0.625-1.242,1.354-1.691,2.195s-0.74,1.758-0.873,2.755c-0.154,1.029-0.133,1.969,0.072,2.819
		C951.68,134.583,952.033,135.319,952.539,135.942z M953.627,128.86c0.217-0.468,0.547-0.949,0.988-1.446
		c0.439-0.497,1-0.938,1.678-1.318c0.68-0.383,1.482-0.573,2.42-0.573c0.637,0,1.209,0.114,1.736,0.342
		c0.525,0.231,0.971,0.539,1.336,0.932c0.361,0.393,0.617,0.848,0.771,1.362c0.148,0.515,0.189,1.07,0.115,1.66h-9.406
		C953.289,129.649,953.408,129.331,953.627,128.86z"/>
	<path fill="#BF311A" d="M976.012,131.729c-0.312-0.489-0.74-0.86-1.287-1.12c-0.545-0.257-1.146-0.442-1.807-0.558
		c-0.662-0.116-1.27-0.253-1.832-0.416c-0.566-0.164-1.02-0.388-1.363-0.675s-0.48-0.726-0.402-1.316
		c0.059-0.346,0.191-0.652,0.402-0.917c0.211-0.27,0.467-0.49,0.775-0.662c0.305-0.171,0.625-0.303,0.975-0.399
		c0.344-0.094,0.664-0.143,0.975-0.143c0.779,0,1.389,0.156,1.818,0.472c0.428,0.316,0.771,0.781,1.02,1.391l1.691-0.916
		c-0.326-0.862-0.854-1.491-1.59-1.894c-0.742-0.401-1.652-0.604-2.742-0.604c-0.551,0-1.105,0.079-1.662,0.23
		c-0.555,0.152-1.066,0.386-1.547,0.704c-0.475,0.316-0.881,0.71-1.215,1.189c-0.336,0.476-0.553,1.041-0.648,1.688
		c-0.098,0.634-0.057,1.153,0.113,1.563c0.174,0.41,0.424,0.752,0.76,1.019c0.336,0.266,0.727,0.476,1.182,0.631
		c0.445,0.153,0.906,0.28,1.383,0.388c0.48,0.103,0.943,0.213,1.393,0.327s0.846,0.258,1.189,0.431
		c0.344,0.171,0.607,0.396,0.789,0.675c0.18,0.277,0.246,0.643,0.189,1.104c-0.057,0.381-0.197,0.72-0.418,1.015
		c-0.221,0.297-0.49,0.551-0.803,0.762c-0.316,0.21-0.666,0.37-1.049,0.486c-0.379,0.112-0.754,0.171-1.119,0.171
		c-0.781,0-1.5-0.185-2.146-0.559c-0.652-0.371-1.109-0.91-1.375-1.619l-1.666,1.031c0.383,0.917,1.021,1.595,1.908,2.037
		c0.887,0.438,1.904,0.655,3.051,0.655c0.635,0,1.246-0.084,1.852-0.255c0.604-0.171,1.145-0.43,1.635-0.774
		c0.484-0.343,0.898-0.769,1.232-1.275c0.336-0.507,0.553-1.104,0.645-1.791C976.43,132.906,976.328,132.212,976.012,131.729z"/>
	<polygon fill="#BF311A" points="982.764,134.98 980.76,134.98 977.951,141.517 979.639,141.517 	"/>
	<path fill="#BF311A" d="M661.857,153.261c-0.611-0.324-1.432-0.489-2.463-0.489c-0.922,0-1.83,0.232-2.725,0.691
		c-0.898,0.458-1.627,1.186-2.177,2.179c-0.176-1.014-0.596-1.746-1.266-2.195c-0.669-0.445-1.44-0.675-2.322-0.675
		c-0.532,0-1.049,0.073-1.546,0.217c-0.499,0.146-0.957,0.336-1.375,0.573c-0.42,0.241-0.799,0.524-1.133,0.846
		c-0.336,0.325-0.617,0.669-0.846,1.031h-0.09c-0.018-0.133,0-0.427,0.059-0.887c0.057-0.46,0.109-0.936,0.146-1.435h-1.719
		c-0.022,0.175-0.046,0.417-0.071,0.732c-0.03,0.315-0.057,0.654-0.088,1.016c-0.026,0.363-0.066,0.723-0.101,1.076
		c-0.04,0.353-0.081,0.655-0.114,0.902l-1.318,9.518h1.723l0.912-6.622c0.137-0.917,0.369-1.714,0.701-2.394
		c0.335-0.678,0.74-1.242,1.221-1.691c0.477-0.448,1.014-0.782,1.604-1.001c0.594-0.223,1.202-0.33,1.837-0.33
		c0.934,0,1.573,0.369,1.917,1.115c0.349,0.747,0.433,1.731,0.26,2.955l-1.118,7.968h1.719l1.035-7.453
		c0.058-0.478,0.186-0.984,0.383-1.521c0.204-0.532,0.49-1.029,0.864-1.486c0.371-0.463,0.833-0.838,1.393-1.135
		c0.552-0.297,1.229-0.443,2.032-0.443c0.688,0,1.229,0.119,1.621,0.356c0.393,0.24,0.684,0.56,0.874,0.962
		c0.188,0.4,0.295,0.855,0.315,1.362c0.019,0.507-0.012,1.026-0.086,1.559l-1.09,7.799h1.719l1.09-7.883
		c0.096-0.726,0.122-1.432,0.082-2.12c-0.034-0.687-0.202-1.295-0.497-1.819C662.92,154.012,662.471,153.587,661.857,153.261z"/>
	<path fill="#BF311A" d="M674.039,152.771c-0.859,0-1.779,0.158-2.755,0.477c-0.97,0.313-1.823,0.778-2.547,1.39l0.833,1.175
		c1.296-0.991,2.719-1.489,4.266-1.489c1.072,0,1.926,0.247,2.551,0.744c0.635,0.498,0.874,1.318,0.719,2.464l-0.114,0.806h-2.009
		c-0.648,0-1.401,0.042-2.262,0.126c-0.859,0.087-1.688,0.277-2.48,0.576c-0.795,0.295-1.494,0.74-2.106,1.331
		c-0.613,0.593-0.983,1.397-1.115,2.411c-0.097,0.704-0.045,1.306,0.153,1.802c0.203,0.498,0.504,0.903,0.904,1.22
		c0.401,0.313,0.873,0.542,1.405,0.688c0.534,0.146,1.089,0.215,1.663,0.215c1.127,0,2.088-0.2,2.882-0.603
		c0.792-0.4,1.493-1.029,2.106-1.892h0.057c-0.057,0.383-0.098,0.756-0.115,1.119c-0.021,0.363-0.021,0.708,0,1.031h1.604
		c0-0.381,0.01-0.766,0.03-1.146c0.018-0.384,0.045-0.79,0.084-1.231c0.041-0.44,0.089-0.918,0.16-1.435
		c0.066-0.517,0.145-1.099,0.242-1.746l0.458-3.24c0.229-1.684-0.079-2.899-0.93-3.656
		C676.873,153.151,675.648,152.771,674.039,152.771z M676.678,160.6c-0.079,0.555-0.229,1.104-0.448,1.649
		c-0.216,0.545-0.532,1.033-0.942,1.462c-0.41,0.431-0.932,0.779-1.566,1.046c-0.625,0.268-1.405,0.4-2.316,0.4
		c-0.367,0-0.719-0.052-1.062-0.158c-0.344-0.104-0.648-0.259-0.904-0.458c-0.254-0.2-0.453-0.459-0.586-0.773
		c-0.132-0.314-0.172-0.673-0.114-1.075c0.074-0.572,0.313-1.051,0.7-1.432c0.393-0.384,0.873-0.688,1.432-0.916
		c0.565-0.229,1.195-0.395,1.896-0.491c0.695-0.097,1.406-0.141,2.133-0.141h1.895L676.678,160.6z"/>
	<path fill="#BF311A" d="M687.185,153.521c-0.757,0.497-1.409,1.137-1.964,1.918c-0.018-0.133,0-0.427,0.057-0.887
		c0.058-0.46,0.105-0.936,0.142-1.435h-1.716c-0.021,0.175-0.043,0.417-0.074,0.732c-0.027,0.315-0.059,0.654-0.084,1.016
		c-0.03,0.363-0.066,0.723-0.102,1.076c-0.039,0.353-0.079,0.655-0.114,0.902l-1.317,9.518h1.719l1.004-7.226
		c0.094-0.647,0.266-1.256,0.512-1.819c0.247-0.562,0.586-1.056,1.006-1.475c0.422-0.422,0.916-0.752,1.489-0.989
		s1.233-0.357,1.979-0.357c0.211,0,0.422,0.037,0.629,0.113l0.432-1.691c-0.344-0.097-0.669-0.146-0.975-0.146
		C688.812,152.771,687.938,153.023,687.185,153.521z"/>
	<polygon fill="#BF311A" points="701.645,153.146 694.275,159.136 696.312,144.689 694.594,144.689 691.553,166.361 
		693.275,166.361 694.25,159.366 700.525,166.361 703.135,166.361 696.512,159.192 704.166,153.146 	"/>
	<path fill="#BF311A" d="M717.479,154.707c-0.448-0.583-1.034-1.049-1.763-1.402c-0.723-0.352-1.594-0.533-2.607-0.533
		c-0.975,0-1.887,0.182-2.738,0.533c-0.85,0.354-1.617,0.843-2.291,1.462c-0.68,0.623-1.242,1.353-1.693,2.191
		c-0.449,0.843-0.74,1.76-0.871,2.755c-0.155,1.032-0.133,1.971,0.069,2.82c0.203,0.852,0.556,1.588,1.062,2.207
		c0.507,0.623,1.146,1.104,1.918,1.45c0.775,0.345,1.665,0.515,2.679,0.515c1.187,0,2.302-0.218,3.346-0.659
		c1.036-0.44,1.971-1.163,2.79-2.177l-1.119-1.062c-0.533,0.726-1.243,1.301-2.135,1.719c-0.885,0.423-1.77,0.631-2.652,0.631
		c-1.014,0-1.811-0.19-2.393-0.574c-0.582-0.381-1.027-0.84-1.331-1.376c-0.304-0.535-0.493-1.084-0.56-1.647
		s-0.07-1.026-0.018-1.388h11.127l0.173-1.206c0.11-0.765,0.087-1.519-0.071-2.266C718.232,155.954,717.93,155.293,717.479,154.707z
		 M716.779,158.621h-9.404c0.021-0.172,0.141-0.491,0.361-0.959c0.216-0.47,0.545-0.95,0.987-1.449
		c0.44-0.494,0.999-0.937,1.679-1.317c0.678-0.384,1.48-0.572,2.42-0.572c0.634,0,1.207,0.114,1.736,0.342
		c0.523,0.23,0.97,0.541,1.331,0.932c0.364,0.394,0.621,0.846,0.774,1.361C716.814,157.475,716.855,158.03,716.779,158.621z"/>
	<path fill="#BF311A" d="M726.352,149.306h-1.719l-0.546,3.812h-2.864l-0.199,1.548h2.865l-1.205,8.631
		c-0.078,0.477-0.078,0.922-0.016,1.332c0.069,0.411,0.215,0.771,0.443,1.074c0.234,0.304,0.553,0.551,0.963,0.731
		c0.412,0.181,0.924,0.271,1.533,0.271c0.326,0,0.708-0.047,1.146-0.144c0.44-0.097,0.825-0.2,1.146-0.315l0.088-1.547
		c-0.322,0.132-0.666,0.243-1.018,0.329c-0.354,0.087-0.691,0.129-1.018,0.129c-0.573,0-0.996-0.16-1.273-0.486
		c-0.277-0.325-0.371-0.784-0.275-1.375l1.205-8.631h3.785l0.197-1.548h-3.781L726.352,149.306z"/>
	<polygon fill="#BF311A" points="731.143,166.361 732.861,166.361 734.695,153.117 732.977,153.117 	"/>
	<path fill="#BF311A" d="M734.752,146.581c-0.361,0-0.684,0.126-0.957,0.374c-0.281,0.249-0.449,0.556-0.508,0.917
		c-0.038,0.361,0.051,0.668,0.262,0.918c0.207,0.249,0.498,0.373,0.859,0.373s0.691-0.124,0.975-0.373
		c0.285-0.25,0.448-0.557,0.488-0.918c0.057-0.361-0.027-0.668-0.246-0.917C735.408,146.707,735.117,146.581,734.752,146.581z"/>
	<path fill="#BF311A" d="M748.396,153.261c-0.608-0.324-1.432-0.489-2.463-0.489c-0.538,0-1.054,0.073-1.551,0.217
		c-0.494,0.146-0.952,0.336-1.375,0.573c-0.42,0.241-0.798,0.524-1.134,0.846c-0.33,0.325-0.613,0.669-0.842,1.031h-0.088
		c-0.018-0.133,0-0.427,0.057-0.887c0.059-0.46,0.107-0.936,0.146-1.435h-1.723c-0.018,0.175-0.045,0.417-0.071,0.732
		c-0.03,0.315-0.058,0.654-0.089,1.016c-0.025,0.363-0.057,0.723-0.097,1.076c-0.038,0.353-0.079,0.655-0.118,0.902l-1.318,9.518
		h1.725l0.916-6.622c0.133-0.917,0.369-1.714,0.705-2.394c0.33-0.678,0.736-1.242,1.215-1.691c0.477-0.448,1.014-0.782,1.605-1.001
		c0.59-0.223,1.208-0.33,1.833-0.33c0.692,0,1.229,0.119,1.622,0.356c0.393,0.24,0.684,0.56,0.873,0.962
		c0.188,0.4,0.3,0.855,0.318,1.362c0.016,0.507-0.016,1.026-0.09,1.559l-1.089,7.799h1.719l1.095-7.883
		c0.092-0.726,0.122-1.432,0.082-2.12c-0.039-0.687-0.207-1.295-0.502-1.819C749.463,154.012,749.009,153.587,748.396,153.261z"/>
	<path fill="#BF311A" d="M766.773,155.354h-0.057c-0.385-0.803-0.965-1.434-1.75-1.892c-0.784-0.459-1.749-0.691-2.895-0.691
		c-0.975,0-1.918,0.185-2.822,0.549c-0.911,0.362-1.727,0.85-2.454,1.461c-0.726,0.613-1.33,1.326-1.82,2.151
		c-0.489,0.82-0.798,1.701-0.93,2.636c-0.136,0.936-0.071,1.815,0.186,2.637c0.255,0.821,0.66,1.545,1.22,2.164
		c0.553,0.622,1.234,1.107,2.045,1.461c0.816,0.355,1.711,0.531,2.684,0.531c1.146,0,2.174-0.231,3.082-0.688
		c0.908-0.459,1.665-1.091,2.278-1.892h0.057l-0.255,1.832c-0.041,0.251-0.098,0.576-0.176,0.979
		c-0.076,0.4-0.193,0.823-0.357,1.271c-0.162,0.45-0.389,0.897-0.674,1.348c-0.287,0.45-0.657,0.861-1.103,1.234
		c-0.448,0.371-0.991,0.672-1.622,0.9c-0.629,0.232-1.383,0.346-2.262,0.346c-1.034,0-1.981-0.2-2.837-0.601
		c-0.86-0.401-1.533-1.034-2.011-1.892l-1.546,1.261c0.556,0.877,1.393,1.561,2.508,2.05c1.12,0.485,2.345,0.729,3.685,0.729
		c0.67,0,1.428-0.096,2.277-0.286c0.852-0.193,1.667-0.562,2.451-1.118c0.785-0.555,1.49-1.338,2.119-2.352
		c0.637-1.014,1.062-2.342,1.291-3.986l1.719-12.382h-1.719L766.773,155.354z M766.258,159.568
		c-0.096,0.728-0.326,1.409-0.688,2.048c-0.365,0.644-0.819,1.194-1.361,1.666c-0.546,0.468-1.159,0.839-1.838,1.116
		s-1.379,0.413-2.107,0.413c-0.723,0-1.383-0.136-1.979-0.413c-0.59-0.277-1.092-0.648-1.507-1.116
		c-0.41-0.472-0.7-1.022-0.886-1.666c-0.182-0.639-0.225-1.32-0.128-2.048c0.097-0.725,0.326-1.411,0.688-2.05
		c0.366-0.64,0.815-1.194,1.362-1.661c0.542-0.468,1.154-0.842,1.833-1.12c0.679-0.277,1.38-0.414,2.111-0.414
		c0.724,0,1.383,0.137,1.974,0.414c0.596,0.278,1.094,0.652,1.508,1.12c0.41,0.467,0.705,1.021,0.886,1.661
		C766.312,158.157,766.355,158.844,766.258,159.568z"/>
	<path fill="#BF311A" d="M791.74,155.438h-0.059c-0.211-0.459-0.488-0.855-0.832-1.188c-0.344-0.335-0.739-0.609-1.189-0.829
		c-0.45-0.222-0.922-0.385-1.419-0.491c-0.499-0.103-0.992-0.158-1.489-0.158c-1.014,0-1.976,0.175-2.883,0.521
		c-0.908,0.342-1.711,0.824-2.406,1.445c-0.697,0.622-1.283,1.357-1.75,2.208s-0.766,1.78-0.903,2.794
		c-0.155,1.015-0.114,1.944,0.114,2.794c0.234,0.852,0.604,1.588,1.133,2.207c0.525,0.623,1.195,1.104,2.005,1.45
		c0.815,0.345,1.729,0.515,2.742,0.515c0.494,0,1.009-0.054,1.533-0.157c0.524-0.106,1.04-0.268,1.548-0.488
		c0.502-0.222,0.982-0.496,1.432-0.828c0.45-0.336,0.838-0.732,1.164-1.191h0.057l-0.316,2.321h1.719l3.04-21.672h-1.724
		L791.74,155.438z M791.308,159.739c-0.114,0.744-0.356,1.447-0.726,2.106c-0.375,0.661-0.846,1.234-1.406,1.72
		c-0.564,0.487-1.204,0.877-1.922,1.162c-0.719,0.287-1.467,0.43-2.252,0.43c-0.802,0-1.507-0.143-2.121-0.43
		c-0.611-0.285-1.109-0.675-1.488-1.162c-0.383-0.485-0.652-1.059-0.808-1.72c-0.148-0.659-0.166-1.362-0.057-2.106
		c0.114-0.744,0.344-1.444,0.675-2.106c0.334-0.658,0.767-1.232,1.291-1.719c0.524-0.489,1.133-0.876,1.82-1.163
		c0.688-0.288,1.432-0.428,2.238-0.428c0.78,0,1.49,0.14,2.119,0.428c0.631,0.287,1.16,0.674,1.592,1.163
		c0.428,0.486,0.74,1.061,0.93,1.719C791.384,158.295,791.422,158.995,791.308,159.739z"/>
	<path fill="#BF311A" d="M808.293,154.707c-0.449-0.583-1.035-1.049-1.763-1.402c-0.726-0.352-1.595-0.533-2.608-0.533
		c-0.975,0-1.887,0.182-2.736,0.533c-0.852,0.354-1.617,0.843-2.293,1.462c-0.682,0.623-1.247,1.353-1.692,2.191
		c-0.448,0.843-0.741,1.76-0.876,2.755c-0.155,1.032-0.128,1.971,0.074,2.82c0.198,0.852,0.552,1.588,1.059,2.207
		c0.507,0.623,1.146,1.104,1.92,1.45c0.777,0.345,1.666,0.515,2.68,0.515c1.186,0,2.301-0.218,3.341-0.659
		c1.041-0.44,1.976-1.163,2.796-2.177l-1.121-1.062c-0.532,0.726-1.247,1.301-2.133,1.719c-0.89,0.423-1.771,0.631-2.654,0.631
		c-1.014,0-1.811-0.19-2.391-0.574c-0.584-0.381-1.027-0.84-1.332-1.376c-0.309-0.535-0.494-1.084-0.563-1.647
		c-0.063-0.563-0.065-1.026-0.015-1.388h11.125l0.176-1.206c0.109-0.765,0.089-1.519-0.076-2.266
		C809.048,155.954,808.738,155.293,808.293,154.707z M807.592,158.621h-9.404c0.023-0.172,0.141-0.491,0.357-0.959
		c0.221-0.47,0.552-0.95,0.992-1.449c0.441-0.494,0.996-0.937,1.674-1.317c0.68-0.384,1.484-0.572,2.424-0.572
		c0.631,0,1.207,0.114,1.736,0.342c0.525,0.23,0.971,0.541,1.332,0.932c0.365,0.394,0.616,0.846,0.771,1.361
		C807.628,157.475,807.668,158.03,807.592,158.621z"/>
	<path fill="#BF311A" d="M815.415,154.865c0.308-0.173,0.631-0.305,0.975-0.402c0.349-0.092,0.67-0.14,0.974-0.14
		c0.784,0,1.393,0.156,1.824,0.473c0.428,0.316,0.768,0.781,1.014,1.39l1.693-0.917c-0.328-0.861-0.855-1.493-1.592-1.893
		c-0.735-0.4-1.648-0.604-2.736-0.604c-0.555,0-1.107,0.079-1.666,0.232c-0.552,0.152-1.066,0.385-1.543,0.702
		c-0.48,0.315-0.886,0.709-1.22,1.189c-0.331,0.477-0.548,1.04-0.644,1.691c-0.098,0.63-0.059,1.152,0.114,1.562
		c0.171,0.412,0.423,0.751,0.759,1.017c0.334,0.269,0.727,0.477,1.176,0.631c0.444,0.153,0.912,0.283,1.389,0.388
		c0.476,0.104,0.942,0.215,1.393,0.328c0.445,0.117,0.846,0.258,1.185,0.436c0.349,0.166,0.608,0.391,0.794,0.668
		c0.181,0.277,0.242,0.644,0.184,1.107c-0.057,0.384-0.196,0.718-0.412,1.014c-0.222,0.297-0.49,0.552-0.803,0.762
		c-0.318,0.213-0.666,0.371-1.049,0.485c-0.385,0.114-0.759,0.173-1.12,0.173c-0.784,0-1.498-0.188-2.146-0.559
		c-0.653-0.373-1.111-0.913-1.379-1.62l-1.662,1.032c0.383,0.916,1.018,1.595,1.908,2.035c0.887,0.441,1.903,0.659,3.049,0.659
		c0.631,0,1.248-0.086,1.852-0.257c0.604-0.173,1.146-0.43,1.635-0.774c0.486-0.344,0.898-0.769,1.234-1.275
		c0.331-0.507,0.546-1.103,0.639-1.791c0.12-0.897,0.019-1.595-0.299-2.079c-0.314-0.489-0.744-0.858-1.292-1.12
		c-0.542-0.258-1.146-0.442-1.803-0.557c-0.66-0.118-1.273-0.253-1.838-0.416c-0.563-0.163-1.014-0.39-1.36-0.674
		c-0.341-0.287-0.477-0.729-0.397-1.319c0.057-0.343,0.188-0.649,0.397-0.917C814.852,155.258,815.111,155.038,815.415,154.865z"/>
	<path fill="#BF311A" d="M828.2,146.581c-0.361,0-0.678,0.126-0.955,0.374c-0.282,0.249-0.446,0.556-0.504,0.917
		c-0.038,0.361,0.046,0.668,0.257,0.918c0.211,0.249,0.497,0.373,0.858,0.373c0.366,0,0.692-0.124,0.976-0.373
		c0.285-0.25,0.447-0.557,0.488-0.918c0.057-0.361-0.027-0.668-0.242-0.917C828.857,146.707,828.566,146.581,828.2,146.581z"/>
	<polygon fill="#BF311A" points="824.592,166.361 826.311,166.361 828.145,153.117 826.425,153.117 	"/>
	<path fill="#BF311A" d="M844.283,155.354h-0.059c-0.379-0.803-0.96-1.434-1.744-1.892c-0.789-0.459-1.75-0.691-2.896-0.691
		c-0.976,0-1.917,0.185-2.826,0.549c-0.907,0.362-1.727,0.85-2.45,1.461c-0.728,0.613-1.336,1.326-1.824,2.151
		c-0.484,0.82-0.798,1.701-0.93,2.636c-0.133,0.936-0.07,1.815,0.189,2.637c0.256,0.821,0.66,1.545,1.216,2.164
		c0.556,0.622,1.234,1.107,2.05,1.461c0.812,0.355,1.705,0.531,2.679,0.531c1.146,0,2.174-0.231,3.086-0.688
		c0.903-0.459,1.665-1.091,2.274-1.892h0.061l-0.26,1.832c-0.039,0.251-0.092,0.576-0.171,0.979c-0.075,0.4-0.195,0.823-0.358,1.271
		c-0.166,0.45-0.387,0.897-0.673,1.348c-0.292,0.45-0.657,0.861-1.106,1.234c-0.449,0.371-0.986,0.672-1.617,0.9
		c-0.632,0.232-1.384,0.346-2.267,0.346c-1.031,0-1.974-0.2-2.837-0.601c-0.86-0.401-1.53-1.034-2.006-1.892l-1.552,1.261
		c0.556,0.877,1.394,1.561,2.513,2.05c1.113,0.485,2.344,0.729,3.68,0.729c0.67,0,1.432-0.096,2.279-0.286
		c0.851-0.193,1.669-0.562,2.455-1.118c0.784-0.555,1.489-1.338,2.119-2.352c0.629-1.014,1.062-2.342,1.291-3.986l1.719-12.382
		H844.6L844.283,155.354z M843.767,159.568c-0.093,0.728-0.326,1.409-0.688,2.048c-0.362,0.644-0.815,1.194-1.362,1.666
		c-0.542,0.468-1.158,0.839-1.834,1.116c-0.678,0.277-1.383,0.413-2.105,0.413c-0.729,0-1.383-0.136-1.979-0.413
		c-0.591-0.277-1.098-0.648-1.508-1.116c-0.404-0.472-0.705-1.022-0.886-1.666c-0.185-0.639-0.225-1.32-0.128-2.048
		c0.092-0.725,0.321-1.411,0.684-2.05c0.365-0.64,0.819-1.194,1.361-1.661c0.547-0.468,1.159-0.842,1.838-1.12
		c0.674-0.277,1.379-0.414,2.107-0.414c0.726,0,1.387,0.137,1.973,0.414c0.596,0.278,1.098,0.652,1.508,1.12
		c0.415,0.467,0.711,1.021,0.891,1.661C843.82,158.157,843.863,158.844,843.767,159.568z"/>
	<path fill="#BF311A" d="M859.359,153.261c-0.609-0.324-1.432-0.489-2.463-0.489c-0.535,0-1.055,0.073-1.549,0.217
		c-0.496,0.146-0.955,0.336-1.379,0.573c-0.418,0.241-0.799,0.524-1.127,0.846c-0.336,0.325-0.619,0.669-0.848,1.031h-0.088
		c-0.018-0.133,0-0.427,0.057-0.887c0.059-0.46,0.107-0.936,0.146-1.435h-1.723c-0.018,0.175-0.041,0.417-0.07,0.732
		c-0.027,0.315-0.059,0.654-0.084,1.016c-0.031,0.363-0.062,0.723-0.102,1.076c-0.037,0.353-0.074,0.655-0.115,0.902l-1.322,9.518
		h1.725l0.916-6.622c0.133-0.917,0.369-1.714,0.705-2.394c0.334-0.678,0.74-1.242,1.215-1.691c0.482-0.448,1.014-0.782,1.609-1.001
		c0.586-0.223,1.205-0.33,1.83-0.33c0.691,0,1.229,0.119,1.621,0.356c0.393,0.24,0.682,0.56,0.873,0.962
		c0.193,0.4,0.299,0.855,0.316,1.362s-0.008,1.026-0.088,1.559l-1.088,7.799h1.719l1.092-7.883c0.094-0.726,0.125-1.432,0.088-2.12
		c-0.039-0.687-0.211-1.295-0.506-1.819C860.426,154.012,859.973,153.587,859.359,153.261z"/>
	<path fill="#BF311A" d="M867.963,154.865c0.303-0.173,0.625-0.305,0.973-0.402c0.344-0.092,0.666-0.14,0.975-0.14
		c0.779,0,1.389,0.156,1.818,0.473c0.428,0.316,0.77,0.781,1.02,1.39l1.693-0.917c-0.332-0.861-0.855-1.493-1.598-1.893
		c-0.734-0.4-1.646-0.604-2.734-0.604c-0.553,0-1.107,0.079-1.662,0.232c-0.557,0.152-1.072,0.385-1.547,0.702
		c-0.477,0.315-0.887,0.709-1.217,1.189c-0.336,0.477-0.553,1.04-0.648,1.691c-0.098,0.63-0.057,1.152,0.115,1.562
		c0.172,0.412,0.424,0.751,0.758,1.017c0.336,0.269,0.727,0.477,1.176,0.631c0.451,0.153,0.914,0.283,1.389,0.388
		c0.48,0.104,0.943,0.215,1.393,0.328c0.451,0.117,0.848,0.258,1.191,0.436c0.344,0.166,0.604,0.391,0.787,0.668
		c0.182,0.277,0.244,0.644,0.186,1.107c-0.057,0.384-0.193,0.718-0.414,1.014c-0.221,0.297-0.49,0.552-0.803,0.762
		c-0.316,0.213-0.664,0.371-1.049,0.485c-0.383,0.114-0.752,0.173-1.119,0.173c-0.779,0-1.498-0.188-2.146-0.559
		c-0.652-0.373-1.109-0.913-1.379-1.62l-1.662,1.032c0.383,0.916,1.023,1.595,1.908,2.035c0.887,0.441,1.904,0.659,3.051,0.659
		c0.635,0,1.248-0.086,1.852-0.257c0.604-0.173,1.145-0.43,1.635-0.774c0.484-0.344,0.898-0.769,1.234-1.275
		c0.334-0.507,0.545-1.103,0.643-1.791c0.113-0.897,0.012-1.595-0.305-2.079c-0.312-0.489-0.744-0.858-1.291-1.12
		c-0.541-0.258-1.145-0.442-1.803-0.557c-0.66-0.118-1.27-0.253-1.838-0.416c-0.562-0.163-1.014-0.39-1.361-0.674
		c-0.34-0.287-0.477-0.729-0.396-1.319c0.057-0.343,0.189-0.649,0.396-0.917C867.398,155.258,867.652,155.038,867.963,154.865z"/>
	<path fill="#BF311A" d="M891.205,152.771c-0.859,0-1.775,0.158-2.75,0.477c-0.975,0.313-1.824,0.778-2.553,1.39l0.834,1.175
		c1.301-0.991,2.723-1.489,4.271-1.489c1.064,0,1.92,0.247,2.551,0.744c0.629,0.498,0.869,1.318,0.713,2.464l-0.113,0.806h-2.006
		c-0.648,0-1.402,0.042-2.26,0.126c-0.865,0.087-1.693,0.277-2.486,0.576c-0.789,0.295-1.494,0.74-2.107,1.331
		c-0.607,0.593-0.982,1.397-1.115,2.411c-0.096,0.704-0.043,1.306,0.16,1.802c0.199,0.498,0.502,0.903,0.898,1.22
		c0.406,0.313,0.873,0.542,1.406,0.688c0.537,0.146,1.088,0.215,1.666,0.215c1.127,0,2.084-0.2,2.877-0.603
		c0.795-0.4,1.5-1.029,2.105-1.892h0.064c-0.064,0.383-0.098,0.756-0.121,1.119c-0.018,0.363-0.018,0.708,0,1.031h1.609
		c0-0.381,0.008-0.766,0.027-1.146c0.018-0.384,0.047-0.79,0.088-1.231c0.035-0.44,0.088-0.918,0.152-1.435
		c0.072-0.517,0.15-1.099,0.242-1.746l0.465-3.24c0.229-1.684-0.084-2.899-0.93-3.656
		C894.039,153.151,892.812,152.771,891.205,152.771z M893.844,160.6c-0.078,0.555-0.223,1.104-0.445,1.649
		c-0.213,0.545-0.531,1.033-0.947,1.462c-0.41,0.431-0.93,0.779-1.559,1.046c-0.631,0.268-1.406,0.4-2.324,0.4
		c-0.365,0-0.717-0.052-1.061-0.158c-0.34-0.104-0.643-0.259-0.902-0.458c-0.258-0.2-0.451-0.459-0.584-0.773
		c-0.135-0.314-0.176-0.673-0.119-1.075c0.08-0.572,0.312-1.051,0.703-1.432c0.391-0.384,0.871-0.688,1.436-0.916
		c0.562-0.229,1.189-0.395,1.891-0.491c0.699-0.097,1.41-0.141,2.139-0.141h1.889L893.844,160.6z"/>
	<path fill="#BF311A" d="M909.844,153.261c-0.613-0.324-1.438-0.489-2.469-0.489c-0.533,0-1.053,0.073-1.547,0.217
		c-0.498,0.146-0.957,0.336-1.375,0.573c-0.424,0.241-0.797,0.524-1.133,0.846c-0.334,0.325-0.617,0.669-0.846,1.031h-0.084
		c-0.023-0.133,0-0.427,0.059-0.887c0.057-0.46,0.1-0.936,0.141-1.435h-1.721c-0.018,0.175-0.043,0.417-0.074,0.732
		c-0.027,0.315-0.057,0.654-0.082,1.016c-0.033,0.363-0.064,0.723-0.104,1.076c-0.035,0.353-0.074,0.655-0.113,0.902l-1.318,9.518
		h1.719l0.916-6.622c0.133-0.917,0.371-1.714,0.705-2.394c0.336-0.678,0.74-1.242,1.217-1.691c0.48-0.448,1.014-0.782,1.609-1.001
		c0.586-0.223,1.203-0.33,1.834-0.33c0.688,0,1.225,0.119,1.617,0.356c0.393,0.24,0.682,0.56,0.871,0.962
		c0.195,0.4,0.301,0.855,0.318,1.362s-0.008,1.026-0.084,1.559l-1.088,7.799h1.713l1.094-7.883c0.094-0.726,0.123-1.432,0.088-2.12
		c-0.039-0.687-0.211-1.295-0.504-1.819C910.906,154.012,910.451,153.587,909.844,153.261z"/>
	<path fill="#BF311A" d="M928.211,155.438h-0.057c-0.207-0.459-0.484-0.855-0.828-1.188c-0.344-0.335-0.74-0.609-1.189-0.829
		c-0.451-0.222-0.922-0.385-1.42-0.491c-0.498-0.103-0.996-0.158-1.488-0.158c-1.014,0-1.975,0.175-2.883,0.521
		c-0.908,0.342-1.711,0.824-2.406,1.445c-0.701,0.622-1.283,1.357-1.75,2.208c-0.471,0.851-0.771,1.78-0.904,2.794
		c-0.15,1.015-0.113,1.944,0.115,2.794c0.229,0.852,0.607,1.588,1.133,2.207c0.527,0.623,1.193,1.104,2.01,1.45
		c0.811,0.345,1.723,0.515,2.736,0.515c0.494,0,1.004-0.054,1.529-0.157c0.529-0.106,1.045-0.268,1.553-0.488
		c0.506-0.222,0.982-0.496,1.432-0.828c0.449-0.336,0.836-0.732,1.158-1.191h0.059l-0.314,2.321h1.719l3.041-21.672h-1.723
		L928.211,155.438z M927.783,159.739c-0.113,0.744-0.355,1.447-0.73,2.106c-0.375,0.661-0.842,1.234-1.406,1.72
		c-0.564,0.487-1.203,0.877-1.916,1.162c-0.719,0.287-1.473,0.43-2.252,0.43c-0.803,0-1.512-0.143-2.121-0.43
		c-0.611-0.285-1.109-0.675-1.492-1.162c-0.381-0.485-0.65-1.059-0.805-1.72c-0.152-0.659-0.17-1.362-0.057-2.106
		c0.115-0.744,0.34-1.444,0.676-2.106c0.334-0.658,0.766-1.232,1.291-1.719c0.523-0.489,1.127-0.876,1.82-1.163
		c0.688-0.288,1.432-0.428,2.232-0.428c0.785,0,1.49,0.14,2.125,0.428c0.631,0.287,1.16,0.674,1.586,1.163
		c0.434,0.486,0.74,1.061,0.936,1.719C927.865,158.295,927.898,158.995,927.783,159.739z"/>
	<polygon fill="#BF311A" points="952.984,164.211 952.928,164.211 950.547,153.117 948.912,153.117 943.662,164.211 
		943.607,164.211 941.943,153.117 940.055,153.117 942.377,166.361 944.152,166.361 949.369,155.525 949.428,155.525 
		951.865,166.361 953.643,166.361 959.375,153.117 957.656,153.117 	"/>
	<path fill="#BF311A" d="M972.402,154.707c-0.449-0.583-1.037-1.049-1.764-1.402c-0.723-0.352-1.596-0.533-2.609-0.533
		c-0.973,0-1.887,0.182-2.734,0.533c-0.854,0.354-1.619,0.843-2.293,1.462c-0.68,0.623-1.242,1.353-1.691,2.191
		c-0.451,0.843-0.742,1.76-0.875,2.755c-0.152,1.032-0.131,1.971,0.072,2.82c0.203,0.852,0.555,1.588,1.062,2.207
		c0.506,0.623,1.145,1.104,1.916,1.45c0.775,0.345,1.666,0.515,2.68,0.515c1.186,0,2.301-0.218,3.346-0.659
		c1.035-0.44,1.969-1.163,2.789-2.177l-1.119-1.062c-0.533,0.726-1.242,1.301-2.133,1.719c-0.887,0.423-1.773,0.631-2.654,0.631
		c-1.008,0-1.811-0.19-2.393-0.574c-0.582-0.381-1.027-0.84-1.33-1.376c-0.305-0.535-0.494-1.084-0.561-1.647
		s-0.07-1.026-0.018-1.388h11.129l0.17-1.206c0.111-0.765,0.09-1.519-0.068-2.266C973.156,155.954,972.852,155.293,972.402,154.707z
		 M971.701,158.621h-9.404c0.021-0.172,0.141-0.491,0.359-0.959c0.217-0.47,0.549-0.95,0.988-1.449
		c0.441-0.494,1.002-0.937,1.68-1.317c0.678-0.384,1.48-0.572,2.42-0.572c0.635,0,1.207,0.114,1.736,0.342
		c0.525,0.23,0.969,0.541,1.336,0.932c0.361,0.394,0.615,0.846,0.771,1.361C971.736,157.475,971.775,158.03,971.701,158.621z"/>
	<path fill="#BF311A" d="M989.531,154.737c-0.537-0.621-1.201-1.104-2.008-1.445c-0.803-0.346-1.709-0.521-2.721-0.521
		c-0.502,0-1.008,0.056-1.533,0.158c-0.529,0.106-1.043,0.27-1.551,0.491c-0.506,0.22-0.982,0.494-1.434,0.829
		c-0.447,0.333-0.836,0.729-1.162,1.188h-0.057l1.52-10.749h-1.719l-3.035,21.672h1.713l0.318-2.321h0.057
		c0.189,0.459,0.463,0.855,0.814,1.191c0.357,0.332,0.76,0.606,1.207,0.828c0.445,0.221,0.922,0.382,1.422,0.488
		c0.496,0.104,0.99,0.157,1.488,0.157c1.014,0,1.969-0.17,2.869-0.515c0.895-0.346,1.697-0.827,2.406-1.45
		c0.709-0.619,1.291-1.355,1.748-2.207c0.459-0.85,0.764-1.779,0.918-2.794c0.133-1.014,0.088-1.943-0.127-2.794
		C990.445,156.095,990.066,155.359,989.531,154.737z M989.07,159.739c-0.115,0.744-0.336,1.447-0.67,2.106
		c-0.336,0.661-0.766,1.234-1.293,1.72c-0.527,0.487-1.131,0.877-1.818,1.162c-0.688,0.287-1.438,0.43-2.234,0.43
		c-0.785,0-1.496-0.143-2.119-0.43c-0.635-0.285-1.164-0.675-1.598-1.162c-0.428-0.485-0.738-1.059-0.93-1.72
		c-0.193-0.659-0.229-1.362-0.113-2.106c0.113-0.744,0.361-1.444,0.73-2.106c0.371-0.658,0.838-1.232,1.402-1.719
		c0.564-0.489,1.207-0.876,1.926-1.163c0.713-0.288,1.463-0.428,2.248-0.428c0.803,0,1.508,0.14,2.119,0.428
		c0.613,0.287,1.107,0.674,1.49,1.163c0.383,0.486,0.652,1.061,0.801,1.719C989.168,158.295,989.186,158.995,989.07,159.739z"/>
	<path fill="#BF311A" d="M997.043,154.865c0.303-0.173,0.625-0.305,0.973-0.402c0.344-0.092,0.666-0.14,0.975-0.14
		c0.781,0,1.389,0.156,1.82,0.473c0.428,0.316,0.771,0.781,1.018,1.39l1.693-0.917c-0.326-0.861-0.855-1.493-1.592-1.893
		c-0.736-0.4-1.652-0.604-2.742-0.604c-0.549,0-1.105,0.079-1.66,0.232c-0.555,0.152-1.066,0.385-1.547,0.702
		c-0.477,0.315-0.883,0.709-1.217,1.189c-0.334,0.477-0.551,1.04-0.648,1.691c-0.096,0.63-0.057,1.152,0.115,1.562
		c0.172,0.412,0.424,0.751,0.758,1.017c0.336,0.269,0.729,0.477,1.182,0.631c0.445,0.153,0.908,0.283,1.383,0.388
		c0.482,0.104,0.945,0.215,1.393,0.328c0.451,0.117,0.848,0.258,1.189,0.436c0.346,0.166,0.609,0.391,0.789,0.668
		c0.182,0.277,0.248,0.644,0.191,1.107c-0.059,0.384-0.199,0.718-0.42,1.014c-0.219,0.297-0.488,0.552-0.803,0.762
		c-0.316,0.213-0.664,0.371-1.049,0.485c-0.377,0.114-0.752,0.173-1.113,0.173c-0.783,0-1.498-0.188-2.15-0.559
		c-0.652-0.373-1.111-0.913-1.375-1.62l-1.666,1.032c0.383,0.916,1.021,1.595,1.908,2.035c0.885,0.441,1.904,0.659,3.049,0.659
		c0.635,0,1.248-0.086,1.852-0.257c0.604-0.173,1.146-0.43,1.635-0.774c0.484-0.344,0.898-0.769,1.234-1.275
		c0.334-0.507,0.551-1.103,0.643-1.791c0.115-0.897,0.014-1.595-0.303-2.079c-0.312-0.489-0.74-0.858-1.289-1.12
		c-0.541-0.258-1.145-0.442-1.805-0.557c-0.662-0.118-1.271-0.253-1.834-0.416c-0.564-0.163-1.018-0.39-1.361-0.674
		c-0.344-0.287-0.482-0.729-0.402-1.319c0.059-0.343,0.189-0.649,0.402-0.917C996.479,155.258,996.732,155.038,997.043,154.865z"/>
	<polygon fill="#BF311A" points="1006.213,166.361 1007.932,166.361 1009.766,153.117 1008.047,153.117 	"/>
	<path fill="#BF311A" d="M1009.824,146.581c-0.361,0-0.686,0.126-0.963,0.374c-0.271,0.249-0.443,0.556-0.496,0.917
		c-0.041,0.361,0.049,0.668,0.254,0.918c0.213,0.249,0.5,0.373,0.863,0.373s0.686-0.124,0.977-0.373
		c0.285-0.25,0.445-0.557,0.482-0.918c0.059-0.361-0.02-0.668-0.24-0.917C1010.477,146.707,1010.184,146.581,1009.824,146.581z"/>
	<path fill="#BF311A" d="M1017.879,149.306h-1.723l-0.541,3.812h-2.865l-0.203,1.548h2.869l-1.203,8.631
		c-0.08,0.477-0.084,0.922-0.018,1.332c0.064,0.411,0.215,0.771,0.445,1.074c0.229,0.304,0.547,0.551,0.961,0.731
		c0.408,0.181,0.92,0.271,1.533,0.271c0.326,0,0.705-0.047,1.146-0.144c0.439-0.097,0.82-0.2,1.145-0.315l0.09-1.547
		c-0.328,0.132-0.666,0.243-1.023,0.329c-0.348,0.087-0.688,0.129-1.014,0.129c-0.572,0-1-0.16-1.277-0.486
		c-0.279-0.325-0.367-0.784-0.273-1.375l1.207-8.631h3.787l0.197-1.548h-3.785L1017.879,149.306z"/>
	<path fill="#BF311A" d="M1034.49,154.707c-0.445-0.583-1.035-1.049-1.764-1.402c-0.727-0.352-1.594-0.533-2.607-0.533
		c-0.975,0-1.887,0.182-2.738,0.533c-0.85,0.354-1.613,0.843-2.291,1.462c-0.68,0.623-1.242,1.353-1.693,2.191
		c-0.445,0.843-0.74,1.76-0.875,2.755c-0.15,1.032-0.129,1.971,0.074,2.82c0.197,0.852,0.551,1.588,1.059,2.207
		c0.506,0.623,1.148,1.104,1.924,1.45c0.771,0.345,1.666,0.515,2.68,0.515c1.182,0,2.297-0.218,3.336-0.659
		c1.047-0.44,1.977-1.163,2.799-2.177l-1.119-1.062c-0.533,0.726-1.246,1.301-2.139,1.719c-0.889,0.423-1.77,0.631-2.648,0.631
		c-1.014,0-1.811-0.19-2.396-0.574c-0.582-0.381-1.023-0.84-1.33-1.376c-0.309-0.535-0.49-1.084-0.561-1.647
		c-0.066-0.563-0.07-1.026-0.014-1.388h11.123l0.174-1.206c0.113-0.765,0.088-1.519-0.076-2.266
		C1035.248,155.954,1034.939,155.293,1034.49,154.707z M1033.789,158.621h-9.4c0.018-0.172,0.137-0.491,0.357-0.959
		c0.219-0.47,0.545-0.95,0.986-1.449c0.441-0.494,1-0.937,1.676-1.317c0.678-0.384,1.488-0.572,2.428-0.572
		c0.625,0,1.207,0.114,1.732,0.342c0.523,0.23,0.969,0.541,1.332,0.932c0.363,0.394,0.621,0.846,0.773,1.361
		C1033.83,157.475,1033.867,158.03,1033.789,158.621z"/>
	<path fill="#BF311A" d="M1045.844,159.408c-0.547-0.258-1.146-0.442-1.809-0.557c-0.656-0.118-1.268-0.253-1.832-0.416
		s-1.02-0.39-1.363-0.674c-0.344-0.287-0.477-0.729-0.4-1.319c0.057-0.343,0.189-0.649,0.4-0.917
		c0.209-0.268,0.469-0.487,0.771-0.66c0.309-0.173,0.635-0.305,0.98-0.402c0.342-0.092,0.668-0.14,0.973-0.14
		c0.785,0,1.393,0.156,1.82,0.473c0.432,0.316,0.768,0.781,1.018,1.39l1.691-0.917c-0.324-0.861-0.857-1.493-1.594-1.893
		c-0.732-0.4-1.645-0.604-2.732-0.604c-0.561,0-1.111,0.079-1.668,0.232c-0.549,0.152-1.068,0.385-1.545,0.702
		c-0.48,0.315-0.887,0.709-1.217,1.189c-0.334,0.477-0.551,1.04-0.643,1.691c-0.098,0.63-0.059,1.152,0.113,1.562
		c0.168,0.412,0.424,0.751,0.758,1.017c0.336,0.269,0.723,0.477,1.174,0.631c0.449,0.153,0.912,0.283,1.393,0.388
		c0.475,0.104,0.938,0.215,1.389,0.328c0.447,0.117,0.846,0.258,1.189,0.436c0.348,0.166,0.607,0.391,0.789,0.668
		c0.18,0.277,0.242,0.644,0.184,1.107c-0.057,0.384-0.197,0.718-0.414,1.014c-0.221,0.297-0.484,0.552-0.801,0.762
		c-0.318,0.213-0.668,0.371-1.045,0.485c-0.389,0.114-0.758,0.173-1.119,0.173c-0.785,0-1.504-0.188-2.152-0.559
		c-0.646-0.373-1.109-0.913-1.375-1.62l-1.66,1.032c0.379,0.916,1.014,1.595,1.904,2.035c0.889,0.441,1.908,0.659,3.053,0.659
		c0.631,0,1.248-0.086,1.848-0.257c0.604-0.173,1.15-0.43,1.635-0.774c0.488-0.344,0.898-0.769,1.234-1.275
		c0.33-0.507,0.545-1.103,0.643-1.791c0.115-0.897,0.02-1.595-0.299-2.079C1046.816,160.039,1046.389,159.67,1045.844,159.408z"/>
</g>
<rect x="609.452" fill="#BF311A" width="467.72" height="203.334"/>
</svg>
