<?xml version="1.0" encoding="utf-8"?>
<!-- Generator: Adobe Illustrator 15.0.0, SVG Export Plug-In . SVG Version: 6.00 Build 0)  -->
<!DOCTYPE svg PUBLIC "-//W3C//DTD SVG 1.1//EN" "http://www.w3.org/Graphics/SVG/1.1/DTD/svg11.dtd">
<svg version="1.1" id="Bold" xmlns="http://www.w3.org/2000/svg" xmlns:xlink="http://www.w3.org/1999/xlink" x="0px" y="0px"
	 width="512px" height="512px" viewBox="0 0 512 512" enable-background="new 0 0 512 512" xml:space="preserve">
<g>
	<g>
		<path fill="#E43C95" d="M189.712,338.049h-0.21c-1.788,3.033-4.202,5.239-7.233,6.608c-3.034,1.379-6.303,2.071-9.821,2.071
			c-3.859,0-7.289-0.672-10.283-2.022c-2.991-1.335-5.565-3.18-7.699-5.523c-2.141-2.353-3.763-5.096-4.863-8.268
			c-1.102-3.164-1.654-6.575-1.654-10.232c0-3.654,0.587-7.062,1.755-10.232c1.168-3.172,2.809-5.923,4.915-8.271
			c2.104-2.344,4.632-4.177,7.6-5.532c2.961-1.339,6.197-2.022,9.715-2.022c2.336,0,4.404,0.255,6.196,0.733
			c1.794,0.478,3.383,1.1,4.764,1.857c1.378,0.762,2.543,1.566,3.512,2.423c0.964,0.864,1.751,1.709,2.373,2.541h0.312v-34.845h12.4
			v78.146h-11.781v-7.432H189.712z M160.362,320.682c0,1.919,0.322,3.782,0.975,5.578c0.659,1.787,1.621,3.378,2.898,4.753
			c1.275,1.372,2.806,2.479,4.595,3.312c1.796,0.82,3.825,1.235,6.098,1.235c2.274,0,4.307-0.415,6.095-1.235
			c1.79-0.832,3.328-1.939,4.603-3.312c1.273-1.375,2.235-2.966,2.894-4.753c0.657-1.796,0.979-3.659,0.979-5.578
			c0-1.937-0.322-3.79-0.979-5.582c-0.659-1.791-1.621-3.381-2.894-4.766c-1.275-1.371-2.813-2.472-4.603-3.295
			c-1.788-0.832-3.82-1.231-6.095-1.231c-2.273,0-4.302,0.399-6.098,1.231c-1.79,0.823-3.325,1.924-4.595,3.295
			c-1.273,1.385-2.239,2.975-2.898,4.766C160.679,316.892,160.362,318.746,160.362,320.682z"/>
		<path fill="#E43C95" d="M207.892,279.029c0-2.002,0.748-3.741,2.227-5.212c1.485-1.494,3.355-2.228,5.631-2.228
			c2.274,0,4.189,0.708,5.734,2.117c1.546,1.416,2.327,3.188,2.327,5.322c0,2.141-0.781,3.916-2.327,5.321
			c-1.549,1.421-3.46,2.121-5.734,2.121c-2.276,0-4.15-0.732-5.631-2.219C208.644,282.76,207.892,281.04,207.892,279.029z
			 M209.655,295.876h12.401v49.604h-12.401V295.876z"/>
		<path fill="#E43C95" d="M281.178,295.876v45.164c0,4.481-0.557,8.531-1.648,12.151c-1.111,3.617-2.817,6.682-5.124,9.194
			c-2.307,2.521-5.215,4.465-8.732,5.849c-3.518,1.381-7.688,2.064-12.504,2.064c-4.618,0-8.993-0.597-13.13-1.767
			c-4.129-1.162-7.959-3.304-11.474-6.401l7.45-10.126c2.476,2.266,5.062,4.029,7.744,5.269c2.691,1.24,5.795,1.858,9.305,1.858
			c2.966,0,5.466-0.412,7.494-1.235c2.034-0.833,3.649-1.962,4.859-3.406c1.199-1.464,2.062-3.198,2.583-5.229
			c0.516-2.027,0.771-4.293,0.771-6.771v-3.617h-0.198c-1.796,2.413-4.177,4.218-7.134,5.426c-2.963,1.207-5.999,1.816-9.092,1.816
			c-3.72,0-7.1-0.677-10.131-2.019c-3.034-1.344-5.623-3.155-7.804-5.426c-2.173-2.282-3.843-4.963-5.015-8.061
			c-1.17-3.107-1.75-6.402-1.75-9.928c0-3.65,0.548-7.053,1.649-10.232c1.1-3.162,2.72-5.915,4.859-8.263
			c2.134-2.35,4.702-4.186,7.703-5.537c2.995-1.343,6.42-2.018,10.284-2.018c3.514,0,6.784,0.691,9.816,2.067
			c3.031,1.376,5.445,3.584,7.236,6.616h0.207v-7.44H281.178z M254.724,305.808c-2.204,0-4.208,0.351-5.992,1.075
			c-1.802,0.732-3.329,1.722-4.607,2.994c-1.273,1.281-2.268,2.839-2.994,4.658c-0.722,1.82-1.088,3.84-1.088,6.048
			c0,2.002,0.363,3.852,1.088,5.582c0.727,1.725,1.737,3.24,3.05,4.542c1.309,1.319,2.854,2.345,4.645,3.106
			c1.795,0.759,3.724,1.142,5.792,1.142c2.282,0,4.316-0.383,6.15-1.142c1.833-0.766,3.373-1.779,4.658-3.057
			c1.27-1.269,2.25-2.805,2.941-4.597c0.692-1.787,1.038-3.724,1.038-5.787c0-4.351-1.31-7.856-3.938-10.545
			C262.848,307.138,259.272,305.808,254.724,305.808z"/>
		<path fill="#E43C95" d="M287.485,279.029c0-2.002,0.741-3.741,2.229-5.212c1.475-1.494,3.353-2.228,5.627-2.228
			c2.281,0,4.185,0.708,5.733,2.117c1.553,1.416,2.331,3.188,2.331,5.322c0,2.141-0.778,3.916-2.331,5.321
			c-1.549,1.421-3.461,2.121-5.733,2.121c-2.274,0-4.152-0.732-5.627-2.219C288.226,282.76,287.485,281.04,287.485,279.029z
			 M289.243,295.876h12.399v49.604h-12.399V295.876z"/>
		<path fill="#E43C95" d="M309.698,295.876h11.782v7.448h0.214c1.787-3.031,4.201-5.24,7.233-6.615
			c3.031-1.376,6.311-2.067,9.82-2.067c3.789,0,7.201,0.674,10.231,2.018c3.031,1.352,5.611,3.188,7.753,5.536
			c2.13,2.348,3.758,5.1,4.853,8.264c1.108,3.18,1.655,6.582,1.655,10.232c0,3.658-0.592,7.072-1.754,10.236
			c-1.179,3.172-2.81,5.918-4.91,8.268c-2.105,2.348-4.639,4.185-7.597,5.527c-2.965,1.347-6.203,2.019-9.721,2.019
			c-2.344,0-4.407-0.248-6.195-0.713c-1.792-0.495-3.373-1.116-4.758-1.87c-1.372-0.758-2.551-1.569-3.513-2.435
			c-0.965-0.856-1.756-1.706-2.373-2.528h-0.31v29.871h-12.403v-73.19H309.698z M350.842,320.682c0-1.937-0.33-3.79-0.988-5.582
			c-0.655-1.791-1.615-3.381-2.892-4.766c-1.273-1.371-2.802-2.472-4.601-3.295c-1.793-0.832-3.819-1.231-6.093-1.231
			c-2.274,0-4.31,0.399-6.097,1.231c-1.796,0.823-3.333,1.924-4.598,3.295c-1.285,1.385-2.245,2.975-2.899,4.766
			c-0.659,1.792-0.98,3.646-0.98,5.582c0,1.919,0.33,3.782,0.98,5.578c0.654,1.787,1.614,3.378,2.899,4.753
			c1.265,1.372,2.802,2.479,4.598,3.312c1.787,0.82,3.822,1.235,6.097,1.235c2.273,0,4.304-0.415,6.093-1.235
			c1.799-0.832,3.327-1.939,4.601-3.312c1.269-1.375,2.232-2.966,2.892-4.753C350.512,324.468,350.842,322.601,350.842,320.682z"/>
		<path fill="#E43C95" d="M399.618,338.667h-0.306c-1.796,2.83-4.065,4.87-6.824,6.15c-2.761,1.273-5.784,1.911-9.096,1.911
			c-2.274,0-4.494-0.309-6.665-0.935c-2.166-0.618-4.103-1.541-5.792-2.794c-1.692-1.236-3.048-2.783-4.077-4.646
			c-1.039-1.862-1.558-4.029-1.558-6.513c0-2.686,0.485-4.98,1.45-6.88c0.963-1.891,2.257-3.476,3.867-4.752
			c1.623-1.274,3.501-2.287,5.636-3.045c2.13-0.766,4.357-1.322,6.669-1.71c2.303-0.383,4.63-0.621,6.97-0.729
			c2.348-0.095,4.548-0.141,6.624-0.141h3.093v-1.351c0-3.099-1.07-5.43-3.2-6.979c-2.143-1.539-4.856-2.313-8.164-2.313
			c-2.621,0-5.075,0.452-7.341,1.384c-2.273,0.93-4.227,2.191-5.886,3.772l-6.509-6.5c2.747-2.825,5.969-4.859,9.663-6.104
			c3.683-1.24,7.484-1.862,11.423-1.862c3.51,0,6.468,0.395,8.89,1.19c2.401,0.795,4.4,1.816,5.989,3.053
			c1.582,1.228,2.81,2.681,3.675,4.287c0.857,1.619,1.475,3.268,1.854,4.91c0.378,1.669,0.61,3.26,0.676,4.807
			c0.064,1.559,0.098,2.921,0.098,4.087v28.526h-11.163v-6.826H399.618z M398.898,323.269h-2.587c-1.723,0-3.65,0.066-5.788,0.206
			c-2.138,0.124-4.156,0.465-6.05,0.981c-1.899,0.51-3.493,1.267-4.805,2.277c-1.314,0.992-1.964,2.384-1.964,4.181
			c0,1.178,0.258,2.153,0.77,2.94c0.527,0.796,1.194,1.479,2.02,2.02c0.827,0.552,1.758,0.955,2.796,1.189
			c1.034,0.235,2.056,0.362,3.094,0.362c4.275,0,7.427-1.021,9.466-3.043c2.027-2.049,3.049-4.824,3.049-8.325V323.269z"/>
		<path fill="#E43C95" d="M411.19,295.876h13.65l13.841,34.43h0.215l12.399-34.43h12.917l-23.463,60.266
			c-0.895,2.339-1.879,4.391-2.945,6.146c-1.071,1.763-2.324,3.229-3.77,4.44c-1.45,1.211-3.155,2.102-5.115,2.698
			c-1.961,0.58-4.329,0.873-7.085,0.873c-3.23,0-6.406-0.415-9.5-1.24l1.54-11.162c0.965,0.345,1.978,0.639,3.058,0.881
			c1.062,0.239,2.142,0.362,3.249,0.362c1.513,0,2.798-0.132,3.819-0.416c1.047-0.275,1.92-0.713,2.645-1.305
			c0.716-0.569,1.318-1.34,1.805-2.258c0.478-0.932,0.996-2.057,1.557-3.361l2.381-5.891L411.19,295.876z"/>
	</g>
	<g>
		<path fill="#E43C95" d="M132.212,366.926c0,6.747-5.176,12.267-11.504,12.267c-6.327,0-11.506-5.523-11.506-12.267V146.039
			c0-6.75,5.175-12.271,11.506-12.271c6.328,0,11.504,5.522,11.504,12.271V366.926z"/>
	</g>
	<g>
		<path fill="#E43C95" d="M97.103,290.138c0,6.751-5.174,12.271-11.507,12.271c-6.327,0-11.502-5.527-11.502-12.271v-67.494
			c0-6.749,5.175-12.271,11.502-12.271s11.507,5.522,11.507,12.271V290.138z"/>
	</g>
	<g>
		<path fill="#E43C95" d="M61.301,275.791c0,6.748-5.176,12.271-11.503,12.271c-6.327,0-11.507-5.523-11.507-12.271v-38.802
			c0-6.749,5.175-12.271,11.507-12.271c6.327,0,11.503,5.521,11.503,12.271V275.791z"/>
	</g>
	<g>
		<path fill="#E43C95" d="M145.969,178.813c0-6.75,5.18-12.271,11.507-12.271c6.327,0,11.507,5.521,11.507,12.271v67.491
			c0,6.752-5.18,12.276-11.507,12.276c-6.328,0-11.507-5.528-11.507-12.276V178.813z"/>
	</g>
	<g>
		<path fill="#E43C95" d="M181.774,193.158c0-6.749,5.18-12.269,11.507-12.269s11.507,5.52,11.507,12.269v38.799
			c0,6.748-5.18,12.271-11.507,12.271s-11.507-5.527-11.507-12.271V193.158z"/>
	</g>
</g>
</svg>
