<?xml version="1.0" encoding="utf-8"?>
<!-- Generator: Adobe Illustrator 15.0.0, SVG Export Plug-In . SVG Version: 6.00 Build 0)  -->
<!DOCTYPE svg PUBLIC "-//W3C//DTD SVG 1.1//EN" "http://www.w3.org/Graphics/SVG/1.1/DTD/svg11.dtd">
<svg version="1.1" id="Bold" xmlns="http://www.w3.org/2000/svg" xmlns:xlink="http://www.w3.org/1999/xlink" x="0px" y="0px"
	 width="512px" height="512px" viewBox="0 0 512 512" enable-background="new 0 0 512 512" xml:space="preserve">
<g>
	<path fill="#BCBEC0" d="M256.085,124.412c-72.67,0-131.501,58.896-131.501,131.502c0,72.67,58.896,131.501,131.501,131.501
		c72.67,0,131.502-58.896,131.502-131.501C387.587,183.244,328.691,124.412,256.085,124.412z M256.085,341.269
		c-47.172,0-85.354-38.204-85.354-85.354c0-47.152,38.204-85.355,85.354-85.355c47.151,0,85.354,38.203,85.354,85.355
		C341.46,303.065,303.257,341.269,256.085,341.269z"/>
	<path fill="#BCBEC0" d="M510.632,150.338c-4.228-89.968-52.51-144.529-148.97-148.97c-47.15-2.2-163.939-2.093-211.133,0
		C109.059,3.31,72.478,13.326,42.988,42.816C-6.299,92.103,0.001,158.516,0.001,255.915c0,99.684-5.553,164.559,42.987,213.099
		C92.466,518.47,159.84,512,256.085,512c98.744,0,132.826,0.064,167.741-13.453c47.471-18.43,83.305-60.86,86.806-137.076
		C512.854,314.299,512.725,197.531,510.632,150.338z M436.297,436.404c-32.31,32.31-77.134,29.428-180.831,29.428
		c-106.773,0-149.59,1.579-180.832-29.748c-35.982-35.812-29.469-93.319-29.469-180.511c0-117.984-12.109-202.955,106.303-209.019
		c27.206-0.961,35.214-1.281,103.698-1.281l0.961,0.64c113.798,0,203.083-11.916,208.442,106.475
		c1.217,27.013,1.495,35.128,1.495,103.506C466.044,361.428,468.052,404.501,436.297,436.404z"/>
	<circle fill="#BCBEC0" cx="392.798" cy="119.223" r="30.729"/>
</g>
</svg>
